<mxfile host="app.diagrams.net" modified="2024-04-19T14:10:56.855Z" agent="Mozilla/5.0 (Windows NT 10.0; Win64; x64) AppleWebKit/537.36 (KHTML, like Gecko) Chrome/123.0.0.0 Safari/537.36" etag="3d4dWvBEUC2JtnfQaL9a" version="24.2.5" type="github">
  <diagram name="Page-1" id="6xu36HMfVFBqQu7_PZ_Q">
    <mxGraphModel dx="2150" dy="700" grid="1" gridSize="10" guides="1" tooltips="1" connect="1" arrows="1" fold="1" page="1" pageScale="1" pageWidth="827" pageHeight="1169" math="0" shadow="0">
      <root>
        <mxCell id="0" />
        <mxCell id="1" parent="0" />
        <UserObject label="" plantUmlData="{&#xa;  &quot;data&quot;: &quot;@startuml\n\npackage \&quot;Frontend (Angular)\&quot; {\n  package \&quot;User Interface Components\&quot; as UIComp {\n    rectangle \&quot;Data Visualizations\&quot; as DataViz\n    rectangle \&quot;Charts\&quot; as Charts\n    rectangle \&quot;Maps\&quot; as Maps\n    rectangle \&quot;Forms\&quot; as Forms\n  }\n  \n  rectangle \&quot;Service Components\&quot; as SvcComp\n  \n  rectangle \&quot;Routing Module\&quot; as RouterModule\n  rectangle \&quot;Authentication Module\&quot; as AuthModule\n  rectangle \&quot;Shared Module\&quot; as SharedModule\n}\n\npackage \&quot;Backend (Spring Boot)\&quot; {\n  rectangle \&quot;Presentation Layer\\n(Controllers)\&quot; as Controller\n  rectangle \&quot;Service Layer\&quot; as Service\n  rectangle \&quot;Data Access Layer\\n(Repositories)\&quot; as Repository\n  rectangle \&quot;Model Layer\&quot; as Model\n}\n\npackage \&quot;Python Integration (py4j)\&quot; {\n  rectangle \&quot;Python Components\&quot; as PythonComp\n  rectangle \&quot;Java Components\&quot; as JavaComp\n  rectangle \&quot;py4j Gateway\&quot; as Py4jGateway\n}\n\ndatabase \&quot;MongoDB\&quot; as Mongo\n\nrectangle \&quot;Deployment and Scaling\&quot; as Deployment\n\nrectangle \&quot;Security and Authentication\&quot; as Security\n\nrectangle \&quot;Monitoring and Logging\&quot; as Monitoring\n\nUIComp -down-|&gt; DataViz\nUIComp -down-|&gt; Charts\nUIComp -down-|&gt; Maps\nUIComp -down-|&gt; Forms\nUIComp -down-|&gt; SvcComp\n\nRouterModule -down-|&gt; AuthModule\nRouterModule -down-|&gt; SharedModule\n\nController -down-|&gt; Service\nService -down-|&gt; Repository\nRepository -down-|&gt; Model\n\nPythonComp -[hidden]-&gt; Py4jGateway\nJavaComp -[hidden]-&gt; Py4jGateway\n\nService -down-|&gt; PythonComp\nPythonComp -down-|&gt; Service\n\nMongo -down-|&gt; Repository\n\n@enduml\n&quot;,&#xa;  &quot;format&quot;: &quot;png&quot;&#xa;}" id="x7uojQxoJcwxBFSSzTOZ-2">
          <mxCell style="shape=image;noLabel=1;verticalAlign=top;aspect=fixed;imageAspect=0;image=data:image/png,iVBORw0KGgoAAAANSUhEUgAABoIAAAHdCAIAAAC2e/x/AAAAKnRFWHRjb3B5bGVmdABHZW5lcmF0ZWQgYnkgaHR0cHM6Ly9wbGFudHVtbC5jb212zsofAAACiGlUWHRwbGFudHVtbAABAAAAeJx1VMFS2zAQvesrdjiFQxgCtGVyYCCkMNBkYDDJpe1BtRdH1JE8shzGtPx7V5Jjy056yIzy9q12V/ueLwvDtSnXGct5/JunCAc3WkmDMoHBlUzLjOvDA/jDABrCokANd8TRLzxGuFbrXEmUpjgAXsDizgIuA0BjbLhMM8qacsNhKYqSZ+KdG6Gk51t8Kd779OsV9eUZ/tgnzHnuw/bQD94ovfZRd6LwB/1YhxOh3ojd/qNNbJEd+pMqjZApzFVSZuioFkLtgS75qjQrulHEbtAwx0b2ZUQ0JCYh0yM194O1C5rQwe0nyrXtaKKUqXcUXPiosaAWfAMzXqH+IQfXtFqtsgx1cejftgH2P45L9O14hO0u9SqOsSiaGk+Yq0IYpQXWRRqk6mbTbJgFJdz/zqiPlVlR+1ZsqfajDPLq7HXPuJ7ZW6ZH630G7Hu+4X2uxXaZthrccoNvvKqvPHut/9tWE3qBX7xw08hUTSf1JHRmLHwpzDNVrakacNpdFJMNZOod0IQ6GRHGpRamcvyuoOqF+HgniQq7pydZ2LSZStNtmTbEWG3SYaLe5PDvRWPCPl5brw87y/VB77Q+urUTC83ShgM77Cd0XMBauQaMWphbyTaBQHbtMRjCqY21EoHh95VIEpQ/hxedNW+V8V/Cbu1AeGGBfs/MCWVvy5dkcftdZo8Zl2Yxn8GGXGsdMDo6OT45PRqdDiib1BPDaASj8/HJ8fjTF7idP4ONH7q24akk1axxDA85yvvpty0AX+VG0Jfeye5+OW8Jn8+GE2Fci/TMyzmb4gsvM0MZsUpIPmNYPN8Mz9mMNFeSTceAkjZD9+qKYhH7B3NoI4XSEbRAAACAAElEQVR4XuzdeXgUVb438KD+gc+9M4HnznOfzDgTcHxAMAkEEEFcwADKaFBGHEEWzei4sDgqKBCQEREIEDXxmkjccIFhWEQRwqLCGCCgAzG4w0vAAQybbGmWsCSk3/OmXusWp361nOpT1VVd388fPNXnnDpdfepXvzp96HQnRQEAAAAAAAAAAMBlSXwBAAAAAAAAAAAAyIZlOAAAAAAAAAAAANdhGQ4AAAAAAAAAAMB1WIYDAAAAAAAAAABwHZbhAAAA/GXnzp2fQrxt3Lixvr6ePzcAAAAAADHAMhwAAIBflJeXZ2ZmJoE/tGzZcvPmzfxJAgAAAABwCstwAAAAvlBTU5OcnHz55ZcXFxfzH80Czy1evPiKK65gpwOfiQMAAAAAWbAMBwAA4Avl5eVJSUnLly/nKyBOli1bxs7I0qVL+QoAAAAAAEewDAcAAOALn376aVJSEvuXr4A4qaur+81vfnP77bfzFQAAAAAAjmAZDgAAwBeCuAyXm5u7atUqvlTn9OnTjz/++KZNm/gKqfLz89mz2DkeEtt93rx5XCF7gZdccsm+ffu4cgAAAAAAB7AMBwAA4AvkMlxubu7jGpMnT9bWxsLmCpq5Zs2aTZo0iS/VGTVqFGv53nvvqSXKwhyjX/ly7NZbb73ooovsHA+J7c7GnxuTqqqqJk2a5OXlaQsBAAAAAJzBMhwAAIAvkMtwzRq1/Nn111+vrY2FzRU0czY70TcbMWKE8lOk+pUvI6yH1atX86UX0j+REHL3Hj16tGrVqqGhgSsHAAAAABCFZTgAAABfMFqG0y8M5ebmFhQUcJ8mUz9fpi0kWyq4nu3vrracNm0aeXgc1slll11WVFSkLVR3VDfMn4thg6O2VFfuuM/0OX5Ris6dO//iF7/glgXnzJnDnrqsrExbCAAAAADgAJbhAAAAfMH+MhwrTGqk/TSZ+vkybSHZcv78+azPpk2b9ujRg23s2rWLFQ4ZMkS7+5IlS4x2Hz9+vFrCOtEfHkf/EnJzc9m+ysIc28jOzlaa6Z+Le1F9+vThOuQ65x6qh6rsriylkU+k0h9tbW0tKxw6dKi2EAAAAADAASzDAQAA+ILRMpyyWKZQC5m1a9cq20o5uThFthw8eDDbbtKkSdOmTdlGeXm50O7qRv/+/Vkn6l5GtD3rS2w+l2Uh+bBFixbTp0/nqsgnUulLoo2rgZdeeumxY8e4cgAAAAAAIUl8AQAAAMSD0TKcslimUAvVpaLOnTsrHyvTFqrbZKHRQ3W9T/2MG7k7WWhC3ybG5yILyYd5eXm9evUyeSJ19FT6o2UqKyvZqSkuLubKAQAAAACEJPEFAAAAEA9Gy3D6VSHLQgcrVs0uXO9TPkRG7k4WmtC30T6X+nk6stuMjIxf/epXkxol/fx3rGRL8iHrnO1l8kR6RrUdG/GlAAAAAAAikvgCAAAAiIe4L8OpD6dPn65+jZp+d3Vj7ty5Nr8bLjs7u6KiQlti0q12u6amRvkeNwX3l6QffPDBpZdeavQqtA+1h8q10Zo9e3bSzz8EwSkuLmZVlZWVfAUAAAAAgG1JfAEAAADEQ4zLcJdeeikrL2ykriWRa1tc++rqavYwpZGye3Jyssmn4dSW7FnsfDdcVPfUZLdkYUFBQdLPH2djG3fddVdUc+TK2pzSctmyZayEVfXp00f/orSHyh2MlknVsWPHWOcjRozgKwAAAAAAbEviCwAAACAeYlyG035wLCcnRykk17a49soH3+zvrrZs06YNeSR6TZs2Ze2//PJL5SHZrf1C8gD69eunHn+S7kVpWxodc0lJSZLBR+EUQ4cOZfvW1tbyFQAAAAAA9iTxBQAAYMPOnTs/hYDbuHFjfX09f2rj51NqGS4xRCKRZs2azZs3j6+wwn3Er0+fPnwLeW644Ybhw4fzpRplZWXsGObMmcNXAAAAAADYg2U4AAAx5eXlmZmZ6oduINBatmy5efNm/hzHSQIvwznGfTecyUfVPNDQ0NCqVasePXrwFQAAAAAA9mAZDgBAQE1NTXJy8uWXX15cXKz9XBUE0eLFi6+44gp2Nn3ymbhPsQzne3l5eU2aNKmqquIrAAAAAABswDIcAICA8vLypKSk5cuX8xUQTEuXLmUndNmyZXxFPGAZzv/27dt3ySWX5Obm8hUAAAAAADZgGQ4AQAAWShJMXV3df//3f//pT3/iK+Jh2bJlLLoKCgrUz+uBD3Xr1u2//uu/SktL+QoAAAAAgJ+tW7fuxIkT/Iwfy3AAAEI+xTJcwnn88cebNm169OhRvsJzBQUFmq9BAwAAAACAAEtOTt6wYQM358cyHACAADeW4XJzc1etWsWXOmKzq9OnTz/++OObNm3iK2Jg86njKz8/X/9jnZWVleyclpSUcOXeKy0tZUdSWFhYBj62Zs0ado7waTgAAAAAMLF8+fLf//73HTp04Ob8WIYDABDwKbUMl5ub+/jP9Ks8lpo1aybr9x9tdjVq1CjW8r333lMeKqtyjo9fYfOpbYpxSBX6lcFbb72VnT79cmFGRka3bt24Qu+R0QUAAAAAAEFUUlLCpve7du3SFmIZDgBAALlQ0qxRy0bp6en6VR5zEhewbHbFNRsxYgR7Ucrxk6tUdnTu3LmoqIgvNcYOYPXq1Xzpz2IcUgU5GmRhfn6+H37+kowuAAAAAAAIIvZ+h03v169fry3EMhwAgAByoUS7sqNukx8x0xYy3C5r165VC8ndc3NzCwoKuEK15bRp08g1Jg7r5LLLLtMumZHHTz4XWRhtXMZiJdrFMrKl9kWxYTQ5VPKQyDEhC7kdtTp37vyLX/yCW9fbu3fvxRdfPHHiRG2h98joAgAAAACAICKn91iGAwAQQGZScs1o/Pjx2o+YlZWV6QsLCwvVXbZt29anT5/f/va3Sj9DhgzRtlyyZInSMqmRUqisJal9sn+bNm2qX3ji6BentCXqh9pYYZMmTdSeleMnDyDa+MeeF110kbZbsiX3sTv2etX2HHJIyU/tkYXz589nu7DR6NGjB9vgPgeuHwHmlltuYT00NDRw5V4iowsAAAAAAIKInN5jGQ4AQACZSZs1a5aVlVVcXLxgwQJWm52dzQpbtGgxffp0tYGy7qNdAMrNzW3Xrp1S+MgjjwwcOPA///M/9+zZw+3C7c6sXbuW7LN///5NmjTRLzBx9ItQGRkZv/rVr1jhmTNn1ELWrGnTpsrfjZofgNqee6hvqW2jPwytZtSQkruThYMHD27WuIzIXgLbKC8v///9XthM6+9//3vSz6uN8UJGFwAAAAAABBE5vU/SPgAAAHNkJm3WuGKlLDypC2F5eXm9evWa1Ej9kBq5AMQK27Rpw7rV/k0lK1Q+yWW0u/k6lAl9m0gk0qzxw2tPPPHE7bffXlFRwTUjn4v7MjiuW8vd9Yeh1YwaUnJ3spB8aF5eW1v7y1/+8v777+fKvURGFwAAAAAABBE5vU/SPgAAAHNkJiVXgpS/6DRZSFI1a1xy+o//+I+cnJyamhptobI7o3ywjnwistCEvs3s2bMrKirYUzRrXIwz6Va/r4qrIndXP3bHsCcy+UkHcnf7heRDy/L777//l7/8ZW1tLV/hFTK6AAAAAAAgiMjpfZL2AQAAmCMzKbkSpG7MnTuX/DjbqlWrtN8Nt3z58ksvvfRx3e82MNOnT1e/ms3mE5lg7bOzs5WPvKklZLc9evTYsWMHV2jUP1dF9llTU5OkofzJKonc3X4h+VAxe/ZsdamRwwaZVf3973/nK7xCRhcAAAAAAAQROb1P0j4AAABzZCZt1qxZnz59ChupSzwpjZQS9dNwaiHTvXt39bvhlNpZs2axxrNnz+ZaJicnm3wajnwic9z61KWXXspKuONnJRdffPHDDz+sFOoPQLVs2TLWhnWiDEJ1dTXXUt0uKChI+vkTgmzjrrvu0vajRQ4peZxkoUKtUg5J7Vn/EhQNDQ0tW7a85ZZb+AqvkNEFAAAAAABBRE7vsQwHACCAzKTKopIiJydHKVQ/+dWmTRt16Yf7OJi6u7ow9Pjjj7ds2ZJrqfZJrm2RT2SuadOmrP2XX36pPDR6rq5du+oL9f3369dP3T1J85uq+kMlC0nmQ2pZyFWpP7xQUlKSZPBROMXEiRMvvvjivXv38hWeIKMLAAAAAACCiJzeJ2kfAACAOTKTBo7ymwzaX4TQM18mc4b75FqfPn34Fi674YYbhg8fzpdqVFVVNWnSJD8/n6/wRGJEFwAAAAAARA2m91iGAwAQQGbShOTGMhz3YUDp/UvRrVu3jIwMvtQT4YkuAAAAAICER07vsQwHACCAzKSQSJQ/XK2srOQr3IfoAgAAAABIGOT0HstwAAACyEwKieTo0aNNmzZVf7LWS4guAAAAAICEQU7vsQwHACBg2bJlLJMWFBR8ComrR48ezZo1Ky0t5Sso69atO3jwIB8ojnxK3acBAAAAACCIyOk9luEAAAQUFBQo32sGoLr44ounTJnCx4o48j4NAAAAAABBRE7vsQwHACCgtLSUZdLCwsIySFxr1qxhp9jmp+GYIUOGXHzxxQcOHODDRdCn1H0aAAAAAACCiJzeYxkOAEAAmUkh5FavXs2iory8nK8QhOgCAAAAAEgY5PQey3AAAALITAohJysqZPUDAAAAAABxR07vsQwHACCAzKQQcrKiQlY/AAAAAAAQd+T0HstwAAACyEwKIScrKmT1AwAAAAAAcUdO77EMBwAggMykEHKyokJWPwAAAAAAEHfk9B7LcAAAAshMCiEnKypk9QMAAAAAAHFHTu+xDAcAIIDMpBBysqJCVj8AAAAAABB35PQey3AAAALITAohJysqZPUDAAAAAABxR07vsQwHACCAzKQQcrKiQlY/AAAAAAAQd+T0HstwAAACyEwKIScrKmT1AwAJbOfOnZ8CXGjjxo319fV8rAAAQLx9Sk3vsQwHACCAzKSW1q1bN23atDwIghkzZrz44ouRSIQ/i8acRYWerH4AICGVl5dnZmYmAVBatmy5efNmPmgAACCuyOk9luEAAASQmdTc+++/v3DhwggER3V1dUFBAX8ijTmICpKsfgAg8dTU1CQnJ19++eXFxcWfAlxo8eLFV1xxBQsPfCYOAMBXPqWm91iGAwAQQGZSczNmzOCXecD32FnjT6QxB1FBktUPACSe8vJylh+WL1/OVwA0WrZsGYuQpUuX8hUAABA/5PQey3AAAALITGpu+vTp/BoP+B47a/yJNOYgKkiy+gGAxIP8AObq6up+85vf3H777XwFAADED3n7xjIcAIAAMpOawzJcEGEZDgB8JVT54fTp04832rFjB18HxnJzcy+55JJ9+/bxFQAAECfk7RvLcAAAAshMag7LcEGEZTgA8BUyP+Tm5q5atUq/Ld2bb76prIvZXB2L8WBGjBiR1PibA59//jlfJ4m60sfMmzePr/YfO0NaVVXVpEmTvLw8vgIAAOKEvH1jGQ4AQACZSc1hGS6IsAwHAL5C5odmzZpNmjRJvy3dQw891LJly4suuog9i53VsRgPJsbd7VBX+hi2YbnCFXc2x6RHjx6tWrVqaGjgKwAAIB7I27fhMtyCBQumTp2aDyH26quvnjt3jo8MNyHqwBuxxDaZSc1hGS6IsAwXNiwnlJSU8MkCZFi8eDE/3CCOzA/kMhz5OS+yMDc3t6CggCs0wa0EmezOtRR9dju7awsZfaH5K7I/dOw4lRL1I4FKFXn8Rj3E0lJhZ0yYOXPmsDgpKytTSwAAII7I2ze9DLd27dpFixbxb0ogZKqqqths4OzZs3x8uANRB56JJbbJTGoOy3BBhGW4UGHZYOzYsdu3b+fjAGR4//33169fzw86CCLzA7mWRH7Oa8iQIdrCJUuWKLskNbL5iTBuJYjcff78+axN06ZNe/TowTZ27doVFXl2cvfx48drd1fWmLjCwsJCoyciaV9L586di4qKogZD16wRK0lNTdUeLSts0qSJWqIclVEPSY20heShki3JMSGfiKmtrWWdDB06VHkIAADxRd6+6WW4qVOn1tTU8NMoCJ8dO3a89tprfHy4A1EHXnIc22QmNYdluCDCMlyolJSUYA3OPezmLnRBAYnMD+QynLawXbt2yvqUUUtm7dq1XAMjXBty98GDBzdrXJ9q2rQp2ygvL+d2NH92cvcWLVqoIaTdXe0zNzeXvVKuULutR9aSuxttsH/ZQa5evVpfpe+hme6V2m9Jjol2d/UsK0aMGHHppZceO3ZMLQEAgHghb99J2geqqVOn8nMoCKv8/Hw+PtyBqAOPOYttMpOawzJcEAmtGjiICpKsfkAULlK3CV1QQCLzA7mUk5GR8atf/apHjx7jxo1TPw7GapXPUk1q/FyVfiVI/USYCW177qFJlfJQ6Nm53fPy8nr16mWyu4p8IpLR7mqhum20Yd7YTqH+UMmW5EPyLCsqKytZqBQXF2sLAQAgLsjbd5L2gQoLIqB6/vnn+fhwB6IOPOYstslMag7v8INIaNXAQVSQZPUDonCRuk3oggISmR/IVRs24M0a/7ZR+ZNJ9cNTymepFMoZ4VZ2LJksDJlUKQ+Fnp2rUl6Isi/b1q9YqcgnIml3nz17dkVFBVeobhttmDe2U6g/VLIl+ZA8y6qOjbQlAAAQF+TtO0n7QIUFEVA5W6pwAFEHHnMW22QmNYd3+EFk8uZNz0FUkGT1A6JwkbpN6IICEpkfyFUbNtrqN/RrF33UlmoDbmXHksnCkEkV99DOsxvtPnfuXPKDY6tWrdL/7a12HPTIgzcv5DaaNX6cbceOHfoqox6MCskx0W7rH5JnWVVcXMyipbKyUlsIAADeI2/fSdoHKiyIgMrZUoUDiDrwmLPYJjOpObzDDyKhVQMHUUGS1Q+IwkXqNqELCkhkfrj00kubNWtW2IjVKmsxKY3UQmXwtYXJycn6z16ZW7ZsGduRPV2fPn3YRnV1ddR0zUg9MKWl6LNzVeruyoe/9C+ze/fuynfDkU9EIoeOLNQvnCkb7N+LL7744YcfVhorz2Xeg3abPFSypcJkSNVnVx07doy1HzFihLYQAAC8R96+k7QPVFgQAZWzpQoHEHXgMWexTWZScyF5h5+amsoXBZnJmzc9B1FBktUPiArJRRpHQhcUkMj8UFNTk/SznJwc0UKThTBOv3791N2Tfv5VUJM1I/XplJaiz27UW5s2bdQqbZ8M1zJJ80QksiVZaLIM17VrV6EetNv2WyrsDKnW0KFDWQ+1tbV8BQAAeIi8ff//mxYHCyKgcrZU4QCiDjzmLLbJTGrOzjv85s2bp/5s7969fLUn7K+jkS27d+/OF8WAfAovCa0aOIgKkqx+QJSdixRiIXRBAQn5wW9MlhH9oKysjAXMnDlz+AoAAPAQefvGMhxYcLZU4QCiDjzmLLbJTGrOzjt87apTvFag7D+v/ZaOefAU5oRWDRxEBUlWPyDKzkUKsRC6oICE/OA3Pl+Ga2hoaNWqVY8ePfgKAADwEHn7xjIcWHC2VOEAog485iy2yUxqzs47fHIZjm2sWLGC+4jc1q1blRKGbSuFrFYtNG+ZSvWpVmkfkn0quJbMzTff3Lx5c20JuXuq8bNz9E8RMe5TbaBui752PaFVAwdRQZLVD4iyc5FCLIQuKCAhP4CovLy8Jk2aVFVV8RUAAOAV8vaNZTiw4GypwgFEHXjMWWyTmdScnXf42rUk9a87mzdvPmjQIK4BueqkLbz22mv1heo22WdOTg7bvuSSS9i/bFspVPth0tLSTFoqtE/HPTR/dhJZSx4S+URkof1njwiuGjiICpKsfkCUnYsUYiF0QQEJ+QFE7du3j92vc3Nz+QoAAPAKefvGMhxYcLZU4QCiDjzmLLbJTGrOzjt88rvhtEtF6tocucBEfi8b2ZIsJB9q2Wlp0sbOs3PMayNWfVoWkiOmJbRq4CAqSLL6AVF2LlKIhdAFBaRly5ax/FBQUPApgG3dunX7r//6r9LSUr4CAMStW7fuxIkTfHYGMPUpNb3HMhxYcLZU4QCiDjzmLLbJTGrOzjt8ctWJLNQu2KkNyL/WJFuqG9y2/mGrVq3Ufbk/OOVakoXkE5GFJLKWPCSyT8vXbklo1cBBVJBk9QOi7FykEAuhCwpIBQUFSQAAEFfJyckbNmzgEzSAMXJ6H7dlOP0XCSUSoTd7DhiNnhvP62ypwgEPok6IG4MpytVjcK9zN3p2o09nsU1mUnN23uGTL9B+oVbHjh2VDbKltpBrYPLQpMqokNydLCSRtZa7k0+kIguNCK0aOIgKkqx+QJSdi9Q9QpHpEstjMJp42CR0QQGptLSU5YfCwsIyANvWrFnDYgafhgOQYvny5b///e87dOjAJ2gAY59S03uHy3DqBw1WrFjB19lmOedzm3sHYN4z+bkVUeRTWP6ZlQPOliocsIw6KeNmHzmY5LC7x/Lp1DGxMyBcb5ad20F2Qg6dfW70SXIW22QmNWfnHT75qslC9TvRIprvSiO/NI1sqe3TPCTU3QcNGuSTT8ORh6TNDGqh5Wu3JLRq4CAqSLL6AVF2LlLtRywdL0iRQSg3v2mfgnw6kp2WdtoYEbqggIT8AAAQdyUlJSwV79q1i68AMEDevh0uw6lTMfZeyM77f1Is8zkp3DsA856dTZE5jnfUatWqFV+k42ypwgH7Ucdte8nj57V8OrWBZcuIro2dXSxJ6YTjRp8kZ7FNZlJzdt7hk6+aLCTXo+0XphpfR0p79YcX1N2VXxc1aUn+boPos3O4vypdsmRJxPSQFGqh5bNbElo1cBAVJFn9gCjRi1QolrQc76hlfu92dpx2WtppY0ToggIS8gMAQNytXr2apeL169fzFQAGyNt3rMtw2u2tW7f+/K4nlW2rtcr7pVTdB3a4+ZzluyZ1W317pj6j0j7GAyAZHZW+T8v3hyptrfp/4NonKi4u1hdaHrz+D0ZSTY+T0X5gxIizpQoHhKJOHTfypJODqd1d3U6lhihCDaZC2wn3kKvikKeSfHb7gRTRjIP59/cbPdQ/OzmeZEu1SvswQg0deTrIAVGI9mk+niacxTaZSc3ZeYcPUuiDxzGhVQMHUUGS1Q+IsnORaqNL3TbKRfqW5MMIld9SqVSmfSLze3dycnJGRgbbYP+ybaWQPE7ydqNucNv6h+T9wojQBQUk5AcAgLhDKgZRZMzIXIYjC9nkctCgQco2N3E0md6Z92m0QTbWHoBaSH52g0T+qRfZJ/nXUiTyz0+0gzNhwgTlox/ksyu40SMLyeMkR8mEs6UKByyjjhw38uWQg0m2JIeIfEjGDNkniTyV5LPbDyTy2clC8uDJZyd3J1uSfXJtFOTpIAfEfp/2j9OEs9gmM6k5O+/wwTFyfSF2QqsGDqKCJKsfEGXnItVmFfP/+SAL7ec3MpWRfZLY7v3792cb2dnZ6k2E3J283ZAtLR+aH1JE8IICEvIDBAt+UBISElIxiCJjxvVlOLLQ8qH57kYb5o25bf1DS+Z9koUk5U0jN+k33yWia0C2N2nj4DgVzpYqHLCMOstxI1+jyrIlt8xn2Qn3kGxPIp/dvJBEtiQLLR+a704Wkg/JQrKNlp32Jm3sHCfJWWyTmdScnXf44DdCqwYOooIkqx8QZecibf7zJ/GTk5PVBSwy7ZCF5EOykNydLCQptSyQWrdubb67/ULLh+aHFBG8oICE/AABUlNTk5KS8u677/IVAAGHVAyiyJiRuQynzlAVJi0tH5rvbrQR4wGQWrVqpXZo/n/FZKEJNiVlzcx/05B8dgXZniskD0m72ER+vozjbKnCAcuoU3DjZnnSVeRokC0VZBVXSPZJIk8luTtZSNK+dvM+LR+q25bjadKJUSHZhhwQBdnepE87x0lyFttkJjVn5x0++I3QqoGDqCDJ6gdE2blI1aySmZnZqVMnrlC7TRaSD8lCcnf7925ll9atW/fu3dv8kOwXkg/J+4URoQsKSMgPECwpKSndunUbNmwYPhYHiQSpGESRMSNzGY6chJEtLR+ad2W0Yb4Xt61/SCJ3t19I0k6gyd1VJn1atuceqtvV1dXJycmpjez8AZezpQoHLKPO2biRhea7K8gqslBhUhWx8ezmhSSyJVlo+ZDcXUW2JB+ShZZtRNtzD8mDJzvhOIttMpOas/MOH/xGaNXAQVSQZPUDouxcpGSGsV9IPiQLyd3t37vJ3WMstPPQnNAFBSTkBwiWlJSUJUuWjB07tmvXrl999RVfDRBMSMUgioyZWJfhtL+Uqv0GKPWLn5rH9t1w2i/90X/eh9sgD4DslnxIsv/NKWRLkvnuEc33Z5n0SR68yQtUt7VTee6MkJwtVThgP+q02+RJJwdT3cXoVHLIKq6QjE8SeSrNX5H+pHPI3cmXyVXpH+qfPRLDRcQVkqfD5GXa6ZM8JLLQhLPYJjOpOTvv8FUsqG6++Wa+NH703x9vVBgj1qf54oLHhFYNHEQFSVY/IMrORUpmGPNCifnN/r2b3J0sJPOw/YMn7xdGhC4oICE/QLCkpKS8+eabbKO0tJSli9dee41vARBASMUgiowZh8twzX/+S4QVK1aoheT3ZCttuELyi4rJ3bVSdbNJboPsQW3DbUd+bm/+Ew1qn5a/I0a2JJHHqS3U/5qktk9y9MhCdRfttv0/bFE4W6pwwDLqLMeNLDQfTHVDixxMhUnMkF2pLJ9d3SZbkkR35w7efPdURxcROXT2T4e2yn6fdo6T5Cy2yUxqzs47fBU5GtwrFWVnNEyQu5OFMXKjT8eEVg0cRAVJVj8gys5FSmYY8gqNMb9pd1G37d+7yd3tHydZSB4n2acRoQsKSMgPECwpKSkvvPCCsv3jjz/edtttQ4cOPXr06IWtAAIGqRhEkTHjcBnOPnUOFzuJXYWZdhjtDKmzpQoHJEZdXNgZTPAVZ7FNZlJzdt7hK44dO3bTTTdpS0QvWJLjHRXk7mRhjMwXFzwmtGrgICpIsvoBUfYv0niRkgriSOiCAhLyAwRLSkrKc889pz6sq6ubMmVKx44dN27cqGkFEDBIxSCKjBm/L8MJ/V8r2KEdUvM/bFE4W6pwQGLUeQbxGWjOYpvMpObsv8NP1SVMbYm6SkUGXir10WO1inuob0n2qbbXPiQLt27dqu7OttU2Qk8U0XUbR0KrBg6igiSrHxBl/yKNF9F7t98IXVBAQn6AYElJSZk4cSJXyAI4MzOTTcDq6+u5KoBAQCoGUWTMuL4MB0HnbKnCAUQdeMxZbJOZ1Jz9d/j6RSh9CVeobjfXfBGnWkj+KRnZkuyTfEgWkrtbPpH++6TI54oLoVUDB1FBktUPiLJ/kYIzQhcUkJAfIEDOnDmTkpIyadIkviIaPXjw4N13333nnXfu37+frwPwPaRiEEXGDJbhwIKzpQoHEHXgMWexTWZSc/bf4esXofQlXCG5vGWyRsY9VD9hZ393spDcnXwi8788JZ8rLoRWDRxEBUlWPyDK/kUKzghdUEBCfoAAOXjwYEpKyrPPPstXNDp//nxhYWG7du1Wr17N1wH4G1IxiCJjBstwYMHZUoUDiDrwmLPYJjOpOfvv8PWLUPoSrpBc8zJZI9M/1BeKto9ofrdHQbZR4I9STcjqB0TZv0jBGaELCkjIDxAg27dvN1mGU2zatKlTp07PPPPMuXPn+DoAv0IqBlFkzGAZDiw4W6pwAFEHHnMW22QmNWf/Hb5+EUpbYv7JNbLQzkN9oWh7/UOTQq2OHTtyJZa7eEZo1cBBVJBk9QOi7F+k4IzQBQUk5AcIkLVr16akpBQUFPAVF6qpqcnJyenTp8+uXbv4OgBfQioGUWTMYBkOLDhbqnAAUQcecxbbZCY1Z/8dvs1fSrVfaOehvlC0PaP9znj1G9/IHbXfB8d907z536t6TGjVwEFUkGT1A6LsX6TgjNAFBSTkBwiQefPmpaSkzJkzh6+gvPHGG2w+sGTJEr4CwH+QikEUGTNYhgMLzpYqHEDUgcecxTaZSc0JvcPnlq7IP+EkC7U7kp2oP9HA1SrIPslfeCALyd1TbT+RgmwfL0KrBg6igiSrHxAldJGCA0IXFJCQHyBAZs6cmZKSsnLlSr7CwDfffNOtW7fRo0efPn2arwPwE6RiEEXGDJbhwIKzpQoHEHXgMWexTWZSc0Lv8Pfu3XvzzTfzpSHAXrX+q+LiSGjVwEFUkGT1A6KELlJwQOiCAhLyAwTI8OHDU1JSKioq+ApjJ0+eHDlyZPfu3bdt28bXAfgGUjGIImMGy3Bg5vjx486WKhxA1IGXHMc2mUnN4R1+EAmtGjiICpKsfkDUlClT+AgAqWbMmMEPOghCfoAAufHGG1NSUk6cOMFXWFmwYEFaWtrcuXP5CgB/QCoGUWTM0Mtw+fn5P/74Iz+HgvBZvHjxBx98wMeHOxB14CXHsU1mUnNYhgsiLMOFyvz58xcuXMgHAUjCbu6W39QOlpAfIChqa2tbtmyZkpLCV9izY8eOnj17Pvzww8ePH+frAOINqRhEkTFDL8PV1NTk5+fn5eVNg3Bbt24dHxyuQdSBlxzHNplJzWEZLoiwDBc2ZWVlU6dO5TOFtyZPnswXxcyNPoWwS+mFF15g1xQ/4iAI+QGCoqKi4pprrnG8DMecPXs2Nze3S5cuW7Zs4esA4gqpGESRMUMvwwEAAInMpOawDBdEWIYDj3377bedO3c+deoUXxED1hvr8+uvv+YrIICQHyAoXnnlle7du8eyDKdYsWJFenp6SUlJQ0MDXwcQJ0jFIIqMGSzDAQAIIDOpOSzDBRGW4cBLR48eveaaaz788EO+ImYrV67s0KHD3r17+QoIGuQHCIo777yzbdu2sS/DMT/++GN2dvbgwYOPHDnC1wHEA1IxiCJjBstwAAACyExqDstwQYRlOPBMXV1d//79p02bxldIUlJS0rNnTwfflQ6+gvwAgcBuoL///e+zsrKkLMNFGzPk1KlTO3bsuGHDBr4OwHNIxSCKjBkswwEACCAzqTkswwURluHAM08//fSQIUPOnz/PV8gzZsyYwYMH19fX8xUQHMgPEAgffvhhu3bt3n33XVnLcIqysrLMzMz8/HzkMYgvpGIQRcYMluEAAASQmdQcluGCCMtw4I358+dfd911EZd/wYC9cR04cOD48eP5CggO5AcIhOzs7NatW586dUruMhxz8ODBAQMG/PGPf9y/fz9fB+AVpGIQRcYMluEAAASQmdTcrFmztm/fzi/zgI/V1NRgGQ488MUXX6Snp1dVVfEVLjh+/PhNN930+uuv8xUQEMgP4H/btm1r0aLFq6++yralL8Mx58+ff+mll9q1a/fJJ5/wdQCeQCoGUWTMYBkOAEAAmUnNnT17dsyYMViJC5D33ntv/fr1/Ik05iAqSLL6gUA4cOBAx44dP/74Y77CNT/++GNmZqaXzwgSIT+A/91xxx3t27c/d+5c1J1lOMWmTZuuvvrqv/3tb8oTAXgJqRhEkTGDZTgAAAFkJrXEZoqzZs2akXDYJJsvCr6pU6cuWLCAP4WmnEWFnqx+wP9YTsjOzi4sLOQrXLZly5b09PRvv/2WrwDfQ34An1u9evWvf/3rL774Qnno3jJctPGHIP785z/fcsst//73v/k6ADchFYMoMmawDAcAIIDMpKHl6iQ7QGRFhax+wP9GjRr1l7/8paGhga9w3/Llyzt16oQvVwoc5Afws+rq6pYtWz7yyCNqiQczhNmzZ6elpX3wwQd8BYBrkIpBFBkzWIYDABBAZtLQ8mCSHQiyokJWP+Bzb731VlZW1qlTp/gKrxQVFfXq1SuOBwAOID+Ab0UikS5durRp06a2tlYt9GaG8O2331533XWjRo3SPjWAe5CKQRQZM1iGAwAQQGbS0PJmku1/sqJCVj/gZ5999lm7du12797NV3hr9OjR99577/nz5/kK8CvkB/Cnc+fO/elPf0pLS/vwww+15Z7NEE6ePPnXv/71xhtv3Lp1K18HIBtSMYgiYwbLcAAAAshMGlqeTbJ9TlZUyOoHfKu6urp9+/br1q3jKzxXV1d39913T5w4ka8Av0J+AH964oknrr/++qFDh3LlHs8QFi1alJaWNmfOHL4CQCqkYhBFxgyW4QAABJCZNLQ8nmT7lqyokNUP+NPp06d79+796quv8hVxEolEbrzxxtmzZ/MV4EvID+BDkydP7t69e1pamv7rJr2fIezcubNXr14PPvggS258HYAkSMUgiowZLMMBAAggM2loeT/J9idZUSGrH/Cn4cOHjxw5ki+Nqz179rRv337NmjV8BfgP8gP4zYwZM7Kysm666ab58+fzdXGaIZw9e3bChAnXXHNNZWUlXwcgA1IxiCJjBstwAAACyEwaWnGZZPuQrKiQ1Q/40CuvvHLLLbecOXOGr4i3ioqK9PT07777jq8An0F+AF8pLCzs3r37qFGjHn74Yb6uURxnCCtXrmRpjWXduPwaNSQ2pGIQRcYMluEAAASQmTS04jjJ9hVZUSGrH/CbsrKyzMzMvXv38hX+sHTp0k6dOun/pgx8BfkB/GPWrFnXXXfd/Pnzu3TpYvQXoPGdIVRXV/ft23fQoEGHDx/m6wBigFQMosiYwTIcAIAAMpOGVnwn2f4hKypk9QO+smvXroyMjM8//5yv8JOioqJevXqdPHmSrwDfQH4An3j55Ze7du26efNmltm++OILvvpncZ8h1NXV5eXldejQYf369XwdgFNIxSCKjBkswwEACCAzaWjFfZLtE7KiQlY/4B8nT5686aab3n77bb7Cf5588skhQ4bU19fzFeAPyA8Qdw0NDRMnTszKytq1axf71zyz+WSGsG7duszMzBkzZiC5gRRIxSCKjBkswwEACCAzaWj5ZJIdd7KiQlY/4BPsLesDDzwwevRovsKX6urqBg4cOG7cOL4C/AH5AeLr3Llzw4cP79evXyQSefjhh5944gm+xYX8M0M4dOgQS2533HHHvn37+DoAQUjFIIqMGSzDAQAIIDNpaPlnkh1fsqJCVj/gE4WFhX379mXvXfkKvzpx4kRWVlZJSQlfAT6A/ABxdOrUqYEDB+bk5Jw5c+all176wx/+cPbsWb7RhXw1Q2hoaCgqKsrIyPjoo4/4OgARSMUgiowZLMMBAAggM2lo+WqSHUeyokJWP+AHH3/8cceOHQ8cOMBX+Nu+ffvYYS9fvpyvgHhDfoB4+fe//33TTTc99dRT9fX1S5cuvfrqq+1kNh/OECoqKjp37jxx4sQA/e8I+A1SMYgiYwbLcAAAAshMGlo+nGTHhayokNUPxN2OHTvS09NNvrzcz7755ht28JWVlXwFxBXyA8TFP//5T5YQ3nnnHbbNchrb/u677/hGFH/OECKRyAMPPNC7d++dO3fydQA2IBWDKDJmsAwHACCAzKSh5c9JtvdkRYWsfiC+jh8/fv311//jH//gK4Jj9erVmZmZe/bs4SsgfpAfwHuFhYUdOnTYtGlTtPFHn1laWLNmDd/IgJ9nCG+//XZaWtrixYv5CgArSMUgiowZLMMBAAggM2lo+XmS7SVZUSGrH4ij8+fP33vvvePHj+crguatt9664YYbampq+AqIE+QH8NLBgweHDBnSt29f5e9Pf/rpp65du86dO5dvZ8znM4TvvvuOpbjHHnvs1KlTfB2AMaRiEEXGDJbhAAAEkJk0tHw+yfaMrKiQ1Q/E0fTp0//4xz/W1dXxFQH0zDPP9O/fH1+i5BPID+CZ0tLSdu3azZw5U0llx48f79WrV0FBAd/OlP9nCKdOnXr88cevv/56m39mCxBFKgZxZMxgGQ4AQACZSUPL/5Nsb8iKCln9QLwsX768c+fOhw8f5iuC6fz58/fff/+jjz7KV0A8ID+AByKRyMiRI6+77jr12yHPnDlz11135ebmXtjQWlBmCIsXL05LS3vrrbf4CgAKUjGIImMGy3AAAALITBpaQZlku01WVMjqB+Ji69at6enp33zzDV8RZKdPn7711luff/55vgI8h/wAblu4cGFmZuaECRNqa2uVknPnzt17773Dhg07f/78hW2tBWiG8MMPP9x88833339/JBLh6wAuhFQMosiYwTIcAIAAMpOGVoAm2a6SFRWy+gHv1dTUdO3aNSG/8PvQoUPXXHPNokWL+ArwFvIDuOebb77p27fvrbfeumXLFrWwvr7+oYceysnJcfZX9sGaIZw7d27ixIlXX3315s2b+ToADaRiEEXGDJbhAAAEkJk0tII1yXaPrKiQ1Q94jL1ZHTBgwLPPPstXJIrt27dnZGRs2LCBrwAPIT+AG/bu3Tt69Oh27drNmzevoaFBLWfbjz322MCBA8+ePatpLiCIM4SPP/6Y5bqXX35ZOxQAWkjFIIqMGSzDAQAIIDNpaAVxku0GWVEhqx/w2OTJkwcMGFBfX89XJJDy8nL27rSqqoqvAK8gP4Bc+/btGzt2bNu2bfPy8rg/xmxoaBg9evQf//hH9a9THQjoDIENS79+/VhK/+mnn/g6AKRiEEfGDJbhAAAEkJk0tAI6yZZOVlTI6ge89P7773ft2vXYsWN8RcJZuHBhly5dDh06xFeAJ5AfQJaqqqpx48a1bdt26tSpR48e5WqVNbh+/fqdOnWKqxIS3BlCfX39zJkzMzMzy8rK+DoIPaRiEEXGDJbhAAAEkJk0tII7yZZLVlTI6gc8880336SlpW3dupWvSFD5+fm33Xbb6dOn+QpwH/IDxOj8+fOrVq0aMGBARkbGzJkzjxw5wrdoXIN78skn77jjjhjX4KLBnyFs2LChQ4cO06ZNc/bVeJCokIpBFBkzWIYDABBAZtLQCvokWxZZUSGrH/AGexPbuXPn0tJSviKhjRw58oEHHnDws4kQI+QHcOz//J//M3369KuvvvrWW29dvHjxuXPn+BaN2HU9evRoKWtw0YSYIbAkP3jw4Ozs7Orqar4OwgqpGESRMYNlOAAAAWQmDa0EmGRLISsqZPUDHqirq7vzzjvz8vL4ikTH3sCzF57Av0fhW8gPIGrnzp1FRUU9e/bs2LHj5MmTv/32W76FBstpw4YN+9Of/iRlDS6aKDOEhoaGWbNmpaenr1ixgq+DUEIqBlFkzGAZDgBAAJlJQysxJtmxkxUVsvoBD0yYMGHo0KHh/FBYTU3N9ddf//bbb/MV4CbkB7Cjtra2rKyMJaiuXbt27NhxzJgxGzdu5BvpnD179r777rv33nvPnDnD1zmVSDOELVu2dOnSJTc3V+L4QEAhFYMoMmawDAcAIIDMpKGVSJPsWMiKCln9gNvmz59/3XXXcb8tGCq7d+9u3779mjVr+ApwDfIDGNm2bds//vGPsWPH9uzZs2XLlv369XvppZe+//57vp2BU6dO3X333Q8//LDcL0FLsBnC8ePH2RCxEcYPRoccUjGIImMGy3AAAALITBpaCTbJdkxWVMjqB1xVWVmZnp6Od2JffPEFGwfzP3MDiZAfQFFfX8/yz0cffZSXlzdgwIDWjQYOHFhQULBx40bRX1CJRCJ9+/YdNWqU9M/2JuQMYe7cuWlpafPnz+crIDSQikEUGTNYhgMAEEBm0tBKyEm2A7KiQlY/4J6DBw927NiRvQHmK0KptLSUjca+ffv4CnAB8kM4VVdXl5WVzZ49e+LEiUOGDOnWrdtll13G/mXbU6dOXb58+b///W9+H9uOHDly8803P/300w0NDXxdzBJ1hrBt27YePXqMGDHixIkTfB2EAFIxiCJjBstwAAACyEwaWok6yRYlKypk9QMuOXfuXN++fQsKCviKEJs1a1bPnj3xdtQDyA8J7NixY99+++3HH3/89ttvT5s2bcSIEXfeeWfnzp0vu+yyzMzMu+++e+zYsa+++upHH31UVVVVX1/P7+/IgQMHbrzxRvd+ZyaBZwinT59+8sknu3Xr9vXXX/N1kOiQikEUGTNYhgMAEEBm0tBK4Em2EFlRIasfcAl73/XAAw+48bGRQBs7duw999wja2kAjCA/BF1tbe22bdvWrFkzd+7cmTNnPvbYY3fddVe3bt0uv/zyK6+8Misra8iQIWPGjCksLFy4cOGGDRt2794t98vatHbu3NmlS5eXX36Zr5An4WcIS5cuTUtLe+211/gKSGhIxSCKjBkswwEACCAzaWgl/CTbJllRIasfcMM777zTo0ePkydP8hWhV19fP3jw4KeeeoqvAKmQHwLk8OHDGzdunDNnztSpUx955JFbb701IyOjRYsWN9xwwz333DN69Ojnn39+wYIF69at27Fjx6lTp/j9XbZly5b27dvPmzePr5AqDDOE3bt3/+EPf7jvvvuOHTvG10GCQioGUWTMYBkOAEAAmUlDKwyTbDtkRYWsfkC6f/3rX+xddCzfwZTYTp482bNnz+LiYr4C5EF+8K39+/d//PHHs2bNGj169G233XbllVe2bdu2b9++7GFhYeH777+/efPmgwcP8rvFCQuh9PR0dsB8hWwhmSGcO3du8uTJnTp1+vzzz/k6SERIxSCKjBkswwEACCAzaWiFZJJtSVZUyOoH5Nq3b19mZmZZWRlfARr79+9nb0SXLVvGV4AkyA/+ceTIkY8//viFF16477772rVrd9VVVw0ePPhvf/vbO++8869//evo0aP8Dr6xaNEidsCbN2/mK1wQqhnCP//5z/bt27/44ovSf3AW/AapGESRMYNlOAAAAWQmDa1QTbJNyIoKWf2ARGfOnLnlllteeeUVvgJ0vv322/T09C+++IKvABmQH+Jr165dc+fOfeSRRzp27HjllVcOHDhw6tSpK1asqK6u5pv6VVFRUefOnauqqvgKd4RthnDgwIG77rqrf//++/fv5+sggSAVgygyZrAMBwAggMykoRW2SbYRWVEhqx+QaOTIkcOHD+dLwcDq1aszMzP37NnDV0DMkB+8d/DgwcWLFz/xxBOdO3dmgc2ywYIFC4L4x+nnz5+fOHFiVlaWlytEIZwhsHEuKCho3749y4R8HSQKpGIQRcYMluEAAASQmTS0QjjJJsmKCln9gCyvvvpq7969T58+zVeAsdmzZ3fv3j0SifAVEBvkB89s2rQpLy/vxhtvvPLKKx944IG33nprx44dfKPgOHfu3MMPP3znnXd6fFWGdobA4qdTp06TJk1iI8/XQfAhFYMoMmawDAcAIIDMpKEV2kk2R1ZUyOoHpFi3bl379u0D9Bdn/jFx4sQBAwbU1dXxFRAD5AdXNTQ0bNiw4cknn2RXfZcuXaZMmVJRUcE3CqCampo777zzwQcfPHv2LF/nsjDPENiw5+Tk9OnTZ9euXXwdBBxSMYgiYwbLcAAAAshMGlphnmRryYoKWf1A7Hbv3t2uXbuNGzfyFWDD+fPn77333tGjR/MVEAPkB5ds2bJl4sSJmZmZ3bp1mz59+jfffMO3CKxdu3Zdf/31zz77bFx+NwAzhDfeeCMtLe2DDz7gKyDIkIpBFBkzWIYDABBAZtLQwiRbISsqZPUDMTp16lRWVtbs2bP5CrDt5MmTvXr1Ki4u5ivAKeQHuQ4fPvzqq6/26NGjW7du+fn5W7du5VsEXEVFRWZm5jvvvMNXeAUzhGjjD9dcd911o0ePrq2t5esgmJCKQRQZM1iGAwAQQGbS0MIkWyErKmT1A7FoaGh48MEHR40axVeAoP3793fs2HH58uV8BTiC/CDLxo0b//KXv7Ru3fqxxx77/PPP+eqEsGzZsvT09DVr1vAVHsIMQXHy5MlHH330xhtvTLyl3nBCKgZRZMxgGQ4AQACZSUMLk2yFrKiQ1Q/EorCwMDs72/vvUUpI3377bXp6+pYtW/gKEIf8EKPTp0/PmTMnKyvrxhtvfOutt06cOMG3SBTFxcUdO3ZkVx9f4S3MELQWLVqUlpb27rvv8hUQNEjFIIqMGSzDAQAIIDNpaGGSrZAVFbL6Acc+/vhj9vb1wIEDfAU4xYY0MzMTv3QRO+QHx44cOZKfn5+enp6Tk7N27Vq+OoHU19c/9dRTPXv23L9/P1/nOcwQODt37uzVq9df/vIXj3+yFuRCKgZRZMxgGQ4AQACZSUMLk2yFrKiQ1Q+Y++mnn/iiRlVVVRkZGV988QVfAbF57bXXbrrppuPHj/MVjQ4ePMgXAQX5wYHq6uqnn376yiuvfOqpp3744Qe+OrGcOHHinnvuGTRo0MmTJ/m6eMAMQe/s2bMsIDt37owbTXAhFYMoMmawDAcAIIDMpGHA3kK3aNEixQprY/RmO4HJigpZ/YAJFp9t2rRZsmQJVx6JRK677rr58+dz5SDF+PHjBw4cWF9fz5V/8sknbdu2ramp4cpBD/lByL59+8aMGXPVVVdNmTIlDEu91dXVWVlZY8eO1V9lHsAMQciqVasyMjKKiooaGhr4OvA9pGIQRcYMluEAAASQmTQk7rvvvvfee48v1WC1rA1fGgKyokJWP2CCRemtt97apUuX5557Tn2/ev78+SFDhjz99NMXtgVp2FAPHjx4zJgx2sK5c+e2b9/+9ttvf/PNN7XlQEJ+sOngwYMTJkxo06bNtGnTjh07xlcHlsliovKjqK+99hpf4SHMEITs3bv3jjvuGDhwoNGns8G3kIpBFBkzWIYDABBAZtKQsJxDW87CE5WsqJDVD5hQopS9OR/QSHmXnpeX179//7q6Or41yHPixImePXuWlJQoD/Pz86+99toffvhh/fr1rPzCtkAIeX44cuQIX6TDLucpU6a0adNm0qRJhw8f5quDbPfu3WlpaeRPbS5evDjuP4oaxQxBXH19/YwZMzIzM82/r9BO5IOXQp6KwQEyZrAMBwAggMykIXH8+PHWrVsb/UWJeW1ikxUVsvoBI9ooZW+BnnvuuS5durzyyivXXHMN3up4YO/evR06dCgtLR01alSfPn0OHTrEChsaGrp27frll1/yreFCYc4P27dvN1qEUtTU1MycOfOqq64aM2ZMQv7EyqBBgwYOHNitWzftTZZdOzNmzGDpa9u2bZq28WE+BzCvDbPy8nKWFadNm0b+PxCLeRb5LP75CoifMKdicIaMGSzDAQAIIDNpeJj8b7bl/4QnMFlRIasfMKKP0gULFlx22WVFRUXaQnDPpk2bWrZsOXDgwFOnTqmFhYWF3N+rgl5o88OZM2eysrIeeughbhFKcfDgwb/97W9t27YdPXr07t27udrE8OGHH7IRqKurGz9+fE5OjvKFYqdPn37wwQdvv/12/3zuDzMEZ9gZHDx4cHZ29o8//qgtZ9HOYp5FPjv77CrQVkEcKan4k08+4SsADJC3byzDAQAIIDNpeJjMpE3m3wlPVlTI6geMkFFaWVnJfVUcuOTQoUN9+vR57LHHuM997N+/v23btrW1tdpC4IQ2P4wbN27YsGHRxh/6UBehFCtWrEhPT580aRILof/dIbFEIpHMzMyKigq2fe7cuezs7JdffvnAgQPsUnr00UdZCb9D/GCG4BiL6pKSEhbMy5cvV0tYtLOYZ9ss/tlVcMEOED8sCTdp0uTyyy9v0aIFC+xFixadOHGCbwSgQd6+sQwHACCAzKThYfR3JUblISErKmT1AySTKOW+Kg7c8MMPP1x77bX5+fl8RaOhQ4cuXLiQLwWNcOaHFStWdO3aVbls1UUotn327Nnx48d36dIl4f+ceWwj9eH+/fvTGr300kuaVr5glGONyoHDgplFOzvdZ86cYXHOol1ZZmVDx8rZtcDvAPGgpuITJ04sWrTovvvuY+E9cODAOXPmxPj/AfhyjERF3r6xDAcAIIDMpKFC/p+2yf+Bh4GsqJDVD5DMo1T9qrjvvvuOr4OYVVZWtm/ffu7cuXzFz1auXNmvXz++FDRCmB+qq6szMjK2bNmilrB3uSyQFixY0LNnz4ceeijhV3aUn0CNRCJqyalTp9iYtGnTJsY3/C7BDCFGLKSHDRvG7kRpaWnaU8yuAnbe2RWhaQvxoU/FJ0+eXLp06ciRI6+88srbbrutsLCwqqrqf3ewh516dl3PmzePr4Dg08dMFMtwAABCyEwaKuR8mpx5h4esqJDVD5Aso7Surm7w4MHszU9CfsV7HB06dIiN6gMPPEB+B7mCVbVv337nzp18BfwsbPmBhUTfvn1nzZrFla9Zs+ayyy575ZVXuPLEw0YgKyvrww8/5Mpra2u1H5XyFcwQYrd///7WrVtnZGRwf6fPrgV2RZhkUfCGSSpmZ2f9+vUTJkzo1KlTt27d8vLytP+LYI5dI+yiZpf8sGHDEv4/GMKGjBkswwEACCAzaajo/7pEXxI2sqJCVj+gZxmlFRUVbPo7aNCgRP2W9/hio8rGlo2w8hVXpOca8aXws7DlB/YOlsWM9pvgVC+++KI/F6HkKioqYiPAlzbSfnGYr+gzrb4ETKh/ea3/rkx20lk8sOuCKweP2UzFX375JTtZ3bp1u/rqq5999lmTe59CWa0+c+bMuHHjwvDn9qFCxgyW4QAABJCZNGy4/9km//c7VGRFhax+QM8kSiORyNixYzMzM/WfOgG52AizcWajrf0jO9XOnTvbt2+Pz3oYCVV+WLduXYcOHYx+A9S3i1AS7d69+6qrrjL5X4HjjT+juXjxYr4i3jBDiIX+d0i02BXBrgt2dfAV4CHRVLxt27b8/PwbbrihU6dOkyZN2rRpE99Ct1qt/PjMrFmzjCIBgoWMGSzDAQAIIDNp2HCzavy9iayokNUP6BlFqfnCEEhnvujZr1+/lStX8qXQKDz5wc5ag28XoWQZNGhQUVERX6pRWVk5YMCAtm3bHj16lK+LK8wQHGPxzKLa/JOD5ivU4AHHqXjbtm3PP/98jx492B1w3Lhx69evV//bSb9aXV1d3bdvX5YHcK4TABkzWIYDABBAZtKw0f6vHf7eJCovKmT1AxwySu38mSS4xOhPgBcuXDh06FBtCahCkh/s/OWd8gOFt912W5s2bQ4dOsRXB9+HH37ILhDyk6GnT5+eO3du7969r7322lmzZvltDS6KGYJTLJJZPLOoZrHNIpyv1jD5e23wQOypeOfOnS+99FJ2dja7OkaOHLl06dIhQ4boV6tZBmDn2vL/JMD/yJjBMhwAgAAyk4aQ+v/b+v/BCyFZUSGrH+BwUcqmtkVFRVdddRX7l3yjCx4gz0JtbW3btm39+ROQcReS/GDyPfTK6hu7ltl7V/av5WpFQEUikczMTP1/D2zfvv3pp59mF0hOTo7PwwAzBGdsRrjRr5eANySmYnazmzNnzl133fWb3/zG6H8UlM8/5uXlkVkRAoGMGSzDAUAc7Nu3r7KysqysbN68eWwmMWPGjKlTp05v9Nxzz+VdaPLkyUoVa8NaFhQUsL1WrlxZXl6+Z8+eM2fO8L27icykIaTOrfH3JlF5USGrH+Boo9Toc1gQF/rPJI4ZM6awsPDCVvD/hCE/bNmyJSMjo7q6Wltoc20iYYxtpD48d+7c0qVL+/fv3759ezYRYtMnTVufwgwhRpYxz64RdqXY/xVOkEh6KmbXiPnHwA8fPsxulH379uVyIwQFGTNYhgMAF9XX13///fdLlizJz89/7rnnJk2aNLFRcXHx4sWLV69ezWr37NkTEXHgwAG2V3l5+apVq95+++0ZM2ZMmTJlWiM2Q3399dfXrVtn9H9KsSMzaQgpf2nC3g/g702i8qJCVj+gpf5VVMT0W8kgjrTf0Pfll1927doVf2+ll/D5gV2k7NSvWLFCeWi5EpGQKioq2LUQafyqSnaHZbOa9u3b9+/ff+nSpQH6ZVjMEGQxuQrYlcKuFwyv96SnYjur1eyeOGvWrPT0dDVDQoCQMYNlOACQbP/+/QsXLmRzR2VdjG1v3rz5yJEj3GqaS3bt2rVmzZqSkhLl2QsLC9lD/e++O0Zm0nBi84Z77rlH+R/vkJMVFbL6AS3lcxn4KQafi2gWSXv27Ll+/Xq+ReglfH4YNmzYuHHjTNYdEl5dXV1WVtaSJUvYWc7JyWnbtu3TTz+9fft2vl0QYIYgF3ldsOuFXTV8U3CZ3FQs9P2JX375ZZcuXdh59/gvgSBGZMxgGQ4A5Pj+++9ffPFF5fNoX3/9Nb88FieHDx9et25dYWHhzJkzX3vttdi/cojMpOH03nvvpaSkWP4PXhjIigpZ/YAWe8fC3s3ipxgCQfmT4SuuuGL48OF8Xegldn6YN2/eb3/72wEDBoRw9U1VVFTUsmXLa6+9tnfv3nPnzj19+jTfIjgwQ3CJdj2OXS/sqmHXDt8I3CQ3FYt+f+Lx48eHDRvGbpQBXaAPJzJmDJfhzp07V1JSkg8hlsA/Aw8S1dXV/eMf/8jLy1uwYMGhQ4f4ZTA/2bNnz5tvvslie9WqVfzLsI3MpC5hQzp16lT+yvSNKVOmtGjRgv3LV/jJq6++6sEf8siKCmf9+DxO4ovFJ3tbe/fdd8+YMYOvCyBv4lnL++hiZ4qdL3bWfJ5b7JN11pzlByO+mufn5uayM3799df/+c9/VuPN41lo3Afk6aefZoPQs2fPF154gT84N7n0wl2dIXgcG9F4ZEJL7HjY9cKuGhY27Ariq+FCsvJwVHYqvu+++x577LGxY8dOnDiRbfz1r3996KGHcnJyhg4demej3r17s7Rwww03dO7c+eqrr27d6Ne//vXvfve7+++/n3+d4D4HsUTGDL0Md/bsWRYN27dv59/FQpi8//77+KsQMLdq1So2x6qsrOSjx9/WrVs3bdq0zz77jH89NpCZ1A1r165dtGgRf+g+88Ybb/BFPlNVVcWmp+ymxo+vVLKiwkE/gYiTOPrqq6++++47vjSwvIlnVRyji521f/3rX3xpMMk6aw7ygxG/zfM3bty4b98+rtDLWagfBoQNwu7duyMJ9MLdmyF4OUTRuGZCO9i1w4KHL4ULycrDUamp+Pjx47/73e9SU1M7Nerbt+/tt98+dOjQ4cOHP/roo1Mbvf7662+//fZ77733ySefKN+pzRw8eJB/heAVB7FExgy9DFdSUuJSRoYAqampmT59Oh8cAI3q6+tfeuml0tJSPm6Cg93S2BxR9IvAyUzqBnbrZdcgf9AgbseOHa+99ho/vlLJigoH/SBOwsaDeFYhumSRctYc5AcjgZjnezkL9dWAhPaF2+flEEWRCROFlDwclZqKo4iuYBKNJTJm6GU4ltr4Z4NQ8vImB8Eyc+ZM/3wBnGNbtmwpLi7mX5spMpO6gd2Y+cMFp/Lz8/nxlUpWVDjoB3ESQm7HswrRJVHsZ81BfjASlHm+Z7NQvw1IaF+4fZ4NURSZMIHEnoejUlNxFNEVWEKxRMYMluHAjJc3OQiQzz77bP78+Xy4BBN7IZWVlfwrNEZmUjfgxizR888/z4+vVLKiwkE/iJMQcjueVYguiWI/aw7yg5GgzPM9m4X6bUBC+8Lt82yIosiECST2PByVmoqjiK7AEoolMmawDAdmvLzJQYAUFRUlzCeojx07NnHiRP4VGiMzqRtwY5ZI6GbpgKyocNAP4iSE3I5nFaJLotjPmoP8YCQo83zPZqF+G5DQvnD7PBuiKDJhAok9D0elpuIooiuwhGKJjBksw4EZL29yECCDBw/mYyXIcnJy+FdojMykbsCNWSKhm6UDsqLCQT+IkxByO55ViC6JYj9rDvKDkaDM8z2bhfptQEL7wu3zbIiiyIQJJPY8HJWaiqOIrsASiiUyZrAMB2a8vMlBgPTp0+fo0aN8uARTTU3NoEGD+FdojMykbsCNWSKhm6UDsqLCQT+IkxByO55ViC6JYj9rDvKDkaDM8z2bhfptQEL7wu3zbIiiyIQJJPY8HJWaiqOIrsASiiUyZrAMB2a8vMlBgIwcOTJhvhtu7ty5Tz75JP8KjZGZ1A24MUskdLN0QFZUOOgHcRJCbsezCtElUexnzUF+MBKUeb5ns1C/DUhoX7h9ng1RFJkwgcSeh6NSU3EU0RVYQrFExgyW4cCMlzc5CBB2z5gxY0YC/FJqRUXFCy+8EHsmdQNuzBIJnWIHZEWFg34QJyHkdjyrEF0SxX7WHOQHI0GZ53s2C/XbgIT2hdvn2RBFkQkTSOx5OCo1FUcRXYElFEtkzGAZDsx4eZODAGH3jGPHjr344oulpaV80ATHwoULi4uLa2pqYs+kbsCNWSKhU+yArKhw0A/iJITcjmcVokui2M+ag/xgJCjzfM9moX4bkNC+cPs8G6IoMmECiT0PR6Wm4iiiK7CEYomMGSzDgRkvb3IQIOo9Y+nSpc8991xlZeWFgeN3a9eunTx58urVq5WHsWdSN+DGLJHQKXZAVlQ46AdxEkJux7MK0SVR7GfNQX4wEpR5vmezUL8NSGhfuH2eDVEUmTCBxJ6Ho1JTcRTRFVhCsUTGDJbhwIyXNzkIEO094+jRo+++++60adMWLFhw6NAhTfj4zp49e9544428vLwPPvhAWx57JnUDbswSCZ1iB2RFhYN+ECch5HY8qxBdEsV+1hzkByNBmed7Ngv124CE9oXb59kQRZEJE0jseTgqNRVHEV2BJRRLZMxgGQ7MeHmTgwAh7xkVFRX5+fl5eXmvv/66f7427vDhw+vWrXvxxRfZgRUVFW3fvp1vISOTuoEcZHBG6BQ7ICsqHPSDOAkht+NZheiSKPaz5iA/GAnKPN+zWajfBiS0L9w+z4YoikyYQGLPw1GpqTiK6AosoVgiYybOy3Cpqal8Uczc6FNUvI5B+vN6eZODADG/Z1RVVc2dO5e1mTJlCguhhQsXbt68+ciRI3w7d+zatWvNmjUlJSXs2dkx5Ofnl5aWHjx4kG+nEXsmdYP5ILtKeiaJO6FT7ICsqHDQj9tx4l4wuNGzG32KsjyGm2++uXnz5nypCLfjWeUsuixHIEZu9G/Zpx/OmoP8YMSzeX6MPJuF+m1A/P/CLS8Zt3k2RFGnmdBj0s+IUdKT/kQRd/okxZ6Ho1JTcTSu0eXZsCckoVgiY8b5Mpz2zDk+i927d+eLYuhNQfbpMfOXYF4bC+mv3cubHASI/XvG0aNHN2/evHDhwry8vOcaTZ48me3++uuvf/DBB6tXr/7+++/37NnD72bqwIEDbK/y8vKVK1e+9dZbrLfc3NwJEyY888wzrPPi4uKPPvrohx9+4HczFnsmdYPlIO/duzf1Z2ybr46B3EziXsazT+gUOyArKhz0YxknEU2o2IkT7nxJOX1kJzGGmRt9crRPQT4dyU5LO21MuB3PKsvoIrNQjK/Oknn/CXzWHOQHI3bm+ewduHpymSVLlvAt3OfZLNTOgDgLLWd89cLdu8xj6cSzIYrayITqxbJixQq+juL4hXM7ah/Kvf0pyOOM8Ync6NO+2PNwVGoqjtqILvIClELusLt3nC4hQ9E+oVgiYybOy3Akub1ZatWqFV8UM/OXYF5rhDxOstA+y929vMlBgFjeMyxt3759w4YNK1eufPvtt//nf/6Hdfjss89ObTRp0iRlQ/XMM88oG0qb/Px8ttf777//ySeffP/99z/99BPfu6DYM6kbploNsntJWC4/HJvQKXZAVlQ46McyTiKaU2DnXHBt7OxiSUonHDf65Di7xOy0tNPGhNvxrLKMLnKIYnx1lsz7Jw/Jkp2WdtqYiP2sOcgPRkTn+fHi2SxUdEDcHhz/v3ApIxBLJ54NUVQkEw4aNMjOAoTjF87t6Lgfm9zo340+7Ys9D0elpuKoSHRx234TlONUxXiQQrFExozzZbjk5OSMjAy2wf5l20ohuQ6a2vifA1xhxPaHXWPsk2yp7TMtLU3bnmP/2dWWStX/dqFD1pJPRB4nWRhx4bVHvL3JQYBY3jOCJfZM6gbLQU7VZBL1f7S2bt2qXuBsW22pTwXa3bXb+kyiTRrFxcVKIflEJG3nKjLjaVuq2+QTpVKvyITQKXZAVlQ46McyTiKa8FA3yKE2eqgfatGTkqqLAZthRsaJQrRPbZgZHSfH/jxHLdROANQNblv/kBxPE27Hs8oyurQvRBtd+hEmx41sSY4GOcKkBD5rDvKDETvzfO71KsiRTKXOo/r5IHWglCqyByOezULtDIj90EqlBoRsacRXLzzVhctcrdI+JHc34tkQRQUzobpt8nK07SOmLTncx5fUh/Zvf2oDdZtsybVR6Z9I3ZdhVbm5uZGY+yR3T6UCiWxpIvY8HJWaiqOC0RWU2b56nOQJMro7pFLHT/ZAtiQPlWypVmkfkk9kQiiWyJhxvgzHRrB///5sIzs7Wz2L2tejbrPaQYMG6RvoH+bk5LCSSy65hP3LtvVtHPRJtiT7JF177bXqtrpoRfap1rIqLqw55DOSh2S/kHxIHqfJ7npe3uQgQCzvGcESeyZ1g+Ugkx8mJy9w0VTAPdSu10+YMEH50yST3TlkLZlayT7JQvIVmRA6xQ7IigoH/VjGCTmAZCF5CyaHmtydbEn2ybVRkGFGxon9Pu0fJ6m57XkOOQEgW1o+ND8khdvxrLKMLjILkSNMnkqyJTka5AiTEvisOcgPRuzM88kXRb5q8/PIbWh70EYFybNZqJ0BIUPLMrDJG1ywXjgZCeRJtxwNtSWZxv05RFEbmZC8LsjRIF842dKI/sqyfKj2b/84FeSpJwsVf//732fNmhUx6JN87QqTg1e3yUAiX6aJ2PNwVGoqjtqILvI+62yITMY5YjANM9mdQ9aSuxttWGZOB6+UbEmGonZ36bFExozzZTjlWFmPrVu3Nn/9ZCH5kCwkd9cWctEpujt5DCTz3clCEllL7m6/0PKhnd31vLzJQYBY3jOCJfZM6gbLQVb+34ZL1+QFri3UfjBK3WavSG0Q0WUGMlGQT0Qyr40YHKf9QnKCwhE6xQ7IigoH/VjGieUAmp9usqX9QvIhWUi20bLT3qSNnePkKLWO5zlkoeVD80NSuB3PKsvosp+FtMgh0n7KRi0kW5J9qpTahDxrDvKDETvz/Oaa74ZTPxlBvmptof48cht2MrbKs1monQFRjp8LLS39S9ZuB/2FmxSaNyDDQ8Ht6M8hitrIhPZHg3yoZVKlIAdW/5AcTCnHSRYy77333tixY/lSXXtyd5M25OtVt8mXaSL2PByVmoqjNqLL/n1WW+iT2T65u9GGeWOJheRDV2OJjJlYl+HYrah3797mL5UsJB+SheTu5I4KO7trB9p80Fu1apX6s+am/1lKFpLIWnJ38jjJQgXXs/0+jXh5k4MAsbxnBEvsmdQNNgeZXaTs6u7YsaPyUPvGSb3qucygMmpg/lBBPhGJrLWfWskn0ra0Q+gUOyArKhz0Yxkn2gE0H2rLh+q25Ukx6cSokGxDxomCbG/Sp53j5Ci1juc5ZCH5kBxPE27Hs8oyuhRcFiJfOHkqyRdLjoa2JbmXSqlNyLPmID8YsT/PNykkB02lr1U2hP7wx7NZqP0B4ULLMrDV7aC/cJNCddtyNDhclT+HKGojE2pfiLpNjgbXRmHSUu+rr75S3r5xnXAPycHUtlG3TZ5d296k8IsvvmCFDzzwgFoSY5/ah+o2WUi+TBOx5+Go1FQctRFdioDO9rWF+sPgNswbWxaSh0q2JB+6GktkzMS6DMdt2y8kH5KF5O7kjgo7u1dXVycnJ/+/YbYaaHJ3+4UkspbcnTxOslDB9Wy/TyNe3uQgQGzeM4Ii9kzqBstB1i6jqxc4lwRMCiPGe5k/NCkkkS3J7KRldGwmhSaETrEDsqLCQT+WcUIONVlo+ZDcXUW2JB+ShZZtRNtzD8mDJztRkS1jLLTz0JLb8ayyjC7LLGS/UGVZSDZQkS1jLLTz0FLsZ81BfjAiOs8nC8lBU+lr9c3Ut5RGPJuFig4I+aLMC7WC+8LVS558jZaFHJMq/wxR1EYmtHzh3Cs1eWgyJiqljUknHPP/IyELyYdk4e7du7OysrQlkZj7JHcnC7UsYyYiIw9HpabiqI3osrzPqsjCiPFe5g9NCknaljYTBbdh3lioUEW2JB9qSY8lMmawDGfxMwX2vzqEbEkiD57skzxOslDB9Wy/TyNe3uQgQCzvGcESeyZ1g+Ugkxe49qImvw2Eo/zHPlfItSe/LYJ8IhL57GTC1P5PlFpIPhHZpwmhU+yArKhw0I+zOFE39DcsbmzJ3S1PikknRoXmYWZ5nGQheUhkIYlsSRaSx6nWWh48OZ4m3I5nVYzRpd02HyItcjTI3Unks5OFZJ9+PmsO8oMR0Xk+WUgOr0pfq2yQXxplxLNZqOiAmEdRc+objhLshZOF5GiQ4aHgqvw5RFGRTDhI80up5GgouBdu0tKI/u+Z7Aym9jj1syz9s5Pnjiu87bbbtA8VMfZJRhdZSL5ME7Hn4ajUVBwViS7tNnkDIsdW4fFs3/ysGW2QmdO8B+02eahkS/Khq7FExozkZTjy43xkS/K78RRKJ2qhZZ8qsk/y2e3/Yab67JY/pEW2JDW/8DOTSpSTL5M8TrLQjdce8fYmBwFiec8IltgzqRssB5lMGmShNhVwkhq/5kZ9SGYSbZ92fsKSY57xjBKmWkg+EbmLCaFT7ICsqHDQj2WcaMdKP6r68VeqzO8jlifFvE8HYWZ5nJZ92jlODtmS7JM8TrLQ/nGacDueVZbRRR55qum4Gc2mVGSf5O4kba26bb9PstAnZ81BfjAiOs9Xka+abKkWchtkD0Y8m4WKDoi6TQaM+lD7GoP7wskjTxUZDbUlR2nv7JrybIiiNjKhOs9hL1wtJEdDW6V/4fqWRrTN7Cco8onIQrJPsvCiiy5SdlcoEUX2qeBeO9knefDaftRtsqWJ2PNwVGoqjtqILvI1koWpxsHjwWyfbEkWpuqSg7KRajtzqjtqt+23VCjtyZdv/koVQrFExozzZbhAMzklvkIeJ1lon9DuXt7kIEAs7xnBEnsmdUOCDbIoy+wkROgUOyArKhz0E/I4CSe341mF6JIo9rPmID8YCco837NZqNwBif3+FdAX7iXPhiiKTJhAYs/DUampOIro0og9c3pJKJbImAnpMpx2vdPOxw7jhTxOstA+od29vMlBgFjeM1JFVntjQf4PpPbjV978h4YbLAc58Yj+T5R9QqfYAVlR4aCfEMYJuB3PKkSXRLGfNQf5wUhQ5vmezULlDkhqzNOegL5wL3k2RFFkwgQSex6OSk3FUUSXRuyZ00tCsUTGTEiX4cAmL29yECCW9wxtJo0xq7Zq1Yov0lA7134fh+izx55J3WA5yGCf0Cl2QFZUOOgHcRJCbsezCtElUexnzUF+MBKUeb5ns1C/DUhoX7h9ng1RFJkwgcSeh6NSU3EU0RVYQrFExgyW4cCMlzc5CBDLe0ZycnJGRgbbYP+ybaWQ/KxTqtUXAZCfAzVfcSMLTcSeSd1gOchgn9ApdkBWVDjoB3ESQm7HswrRJVHsZ81BfjASlHm+Z7NQvw1IaF+4fZ4NURSZMIHEnoejUlNxFNEVWEKxRMYMluHAjJc3OQgQy3tG8+bN+/fvzzays7PV30giV8e0P4tjvo7mrNDyd0giMjKpGywHGewTOsUOyIoKB/0gTkLI7XhWIbokiv2sOcgPRoIyz/dsFuq3AQntC7fPsyGKIhMmkNjzcFRqKo4iugJLKJbImMEyHJjx8iYHAWJ5z1AWwpIaf5eHXB1ztVD73XDqIqCJ2DOpGywHGewTOsUOyIoKB/0gTkLI7XhWIbokiv2sOcgPRoIyz/dsFuq3AQntC7fPsyGKIhMmkNjzcFRqKo4iugJLKJbImMEyHJjx8iYHAfLss8/ysXIhZUWsdevWvXv3Nl8yIwu1H2FTt8mW9guNHD9+vKCggH+FxshM6gbcmCUSulk6ICsqHPSDOAkht+NZheiSKPaz5iA/GAnKPN+zWajfBiS0L9w+z4YoikyYQGLPw1GpqTiK6AosoVgiYwbLcGDGy5scBMi4ceOOHj3Kh4sGuRBmv7C6ujo5OTm1kYOvgSMLjZw8efL111/nX6ExMpO6ATdmiYRulg7IigoH/SBOQsjteFYhuiSK/aw5yA9GgjLP92wW6rcBCe0Lt8+zIYoiEyaQ2PNwVGoqjiK6AksolsiYwTIcmPHyJgcBsnHjxvnz5/PhokEuhNkv1C7DqT/RQLZUNxz/UurChQu3bNnCv0JjZCZ1A27MEgndLB2QFRUO+kGchJDb8axCdEkU+1lzkB+MBGWe79ks1G8DEtoXbp9nQxRFJkwgsefhqNRUHEV0BZZQLJExQy/DTZkyhX8qCKUZM2bwwQHQiGWfr7/+mo+Yn5ELYfZ/6pT8o1Ryd/Vr4FasWKHuov1uOLUl6auvviouLuZfmykyk7oBN2ZZjh8/LnSzdEBWVDjoB3ESNh7EswrRJYuUs+YgPxgJyjzfs1mo3wYktC/cPs+GKIpMmCik5OGo1FQcRXQFk2gskTFDL8PNnz9/4cKF/BNCyPz4449C35kFoXL+/PmXX365tLSUjxsZUqm1Oek++OCDN998s6GhgX9tpshM6ob8/Hx2DfIH7WObNm366quv+FJHDh48yBfFYPHixexc8+MrlayocNBP4OIEYuRBPKsQXbJIOWsO8oORQMzzvZyF+mpAQvvC7fNyiKLIhIlCSh6OSk3FUURXMInGEhkz9DIcU1ZWNnXq1GkQVtOnT3/hhRdYnPGRAaDxySefsGiprKzk81NstB98U/8oVaINGzawCP/ss8/412MDmUndUFNTw+7N/7e9ew+Pqrr3P67Vp+J5Toucc+yxtgXtDyIkA0m4EyoXEUQxImq5BBBUEEwVaRUVFZFrgiCEVhTDTZSq0ARBEFQQkIsgYkVFULkT7nJJwiWQkPjbzRx2t2tWZvbasyZ7Mvv9+oNnstaatSeT79rO+rhnJiMjQ1yc0er555+vVatW9+7dxQ5FI0eOjIuLu/fee8UOp1avXi0+ubrpqgoH81S5OkGYKqGeTVSXLlr+ag7OD0FE+ev8yn8VGiVPiGd/cfsq/yniTBgbtJyHf9R9Kqa6qiLVWpLWTIUxHADYceHChXnz5o0bN27u3Lk//PCDEHhFlby8vFmzZhmv3j744APx17BNeib1rF//+tfWH/v06XPdddd169bt4MGD1nZV3377batWrf785z8XFRWJfVFJV1XomgdA7OH8AACu41QMVdKaIYYDoMe3336blZX1wgsvTJ8+PcjHxlWyY8eOrV279q9//euECROMB3bo0CHxcSuSnkm9qbS09Nprr7W25OTk9OrVyygDn8+Xm5tr7VJ15syZhx9+uG3btjt27BD7oo+uqtA1D4DYw/kBAFzHqRiqpDVDDAdAs8OHD+fk5LzwwguZmZnGv8btTZs2HT9+XEzIImPv3r2rVq2aNm2a/+iTJ09esWLF2bNnxUfplPRM6k0lJSW/+93vrC2FhYVxcXHGv19//XWbNm369et34sQJ6wBVc+bM8fl88+fPFzuijK6q0DUPgNjD+QEAXMepGKqkNUMMByCCLly4sG3btkWLFr344ouZ5caOHZuRkTFjxoyFCxeuWLFi69at+/btE7O0oA4fPmzca926dYsXL3799deN2Z599tnhw4ePHj3amN+YefXq1T/88IP4UDSRnkm9qbi4uGbNmkJjnz59cnJyjBvnz58fMWJEUlLSsmXLhDFKtmzZkpKS8uSTTxoTin1RQ1dV6JoHQOzh/AAAruNUDFXSmiGGA+CCgwcPbt68+eOPP547d252drb/00lfKDdmzBjj33EXGbdHjx7t7zLGGCP/+te/GvdatGiRz+f7/PPPz507J84eSdIzqTcVFRVdd911QmNOTk6fPn3MHzds2NC0adPHHnvs1KlT/x6kyLhv//79O3TosG/fPrEvOuiqCl3zAIg9nB8AwHWciqFKWjPEcACqqrFjx/75z38WWyNMeib1pjNnzvz+978XGs33pZotp06deuyxx5o2bbphwwbLQGXTpk3z+XzhfL1G5OiqCl3zAIg9nB8AwHWciqFKWjPEcACqqoKCAp/Pt3XrVrEjkqRnUm86depU7dq1xVbL+1Ktli1blpSUNGLEiHDeW/r55583btx49OjRJSUlYp+rdFWFrnkAxB7ODwDgOk7FUCWtGWI4AFVYdnZ2Wlqa2BpJ0jOpNxUUFMTFxYmtAe9LNZ04caJfv35t2rT5+uuvxT7bjEmMv/idd955+PBhsc89uqpC1zwAYg/nBwBwHadiqJLWDDEcgCqsuLi4WbNmq1evFjsiRnom9ab8/Py6deuKrbL3pVrl5ub6fL6srKwLFy6IffaUlZVNmjQpKSlpzZo1Yp9LdFWFrnkAxB7ODwDgOk7FUCWtGWI4AFXbwoUL27dvX1ZWJnZEhvRM6k3Hjx+Pj48XW8tJ35dqOnjwYLdu3Tp16rRz506xz7Y1a9YkJSVlZWVV2p8+CF1VoWseALGH8wMAuI5TMVRJa4YYDkDVVlZW1qlTp9zcXLEjMqRnUm/64YcffD6f2FquovelWnXt2jUhISGc95YeOnTozjvvTEtLO3HihNhXuXRVha55AMQezg8A4DpOxVAlrRliOABV3saNGxs3blxUVCR2RID0TOpNhw8fTkxMFFvLBX9f6tGjR3v16tWxY8dwrobzKykpGTVqlPHX//zzz8W+SqSrKnTNAyD2cH4AANdxKoYqac0QwwGIBQMGDJg4caLYGgHSM6k3HTx4MDk5WWy9SPq+1LNnzy5dujQxMXHcuHEav+30gw8+8Pl806ZNEzsqi66q0DUPgNjD+QEAXMepGKqkNUMMByAW5OXlxcfHHzp0SOzQTXom9SbjOW/cuLHYelHg+1KPHj1au3bthg0bbtq0ydquxd69ezt06NCvX7+KLsGLKF1VoWseALGH8wMAuI5TMVRJa4YYDkCMyMjIeOSRR8RW3aRnUm/au3dvs2bNxNaLhPelbtq0qXnz5l27dk1OTo5QWlpcXDx06FDjKF9//bXYF2G6qkLXPABiD+cHAHAdp2KoktYMMRyAGHH69OmkpKQvvvhC7NBKeib1pl27dqWkpIitFv73pZaUlIwbNy4xMXHp0qVG40svvdShQ4ezZ8+KozV59913fT7f7NmzxY5I0lUVuuYBEHs4PwCA6zgVQ5W0ZojhAMSOt99+OzU1VWzVSnom9aYdO3a0bNlSbLXIyckx/hwdO3bs1avX0aNHzfbBgwffd999paWllrE67dq1q127dg899NDp06fFvsjQVRW65gEQezg/AIDrOBVDlbRmiOEAxI6ysrIOHTq88847Yoc+0jOpN3333XetWrUSWy0KCwvr1q372muvCe3FxcV//OMfn3jiCaFdo3Pnzj3++OMtW7bcunWr2BcBuqpC1zwAYg/nBwBwHadiqJLWDDEcgJjy6aefNm7c+MyZM2KHJtIzqTdt3bq1bdu2YutPnThxQmwqd+rUqY4dO2ZmZoodWuXm5iYkJLzxxhtih266qkLXPABiD+cHAHAdp2KoktYMMRyAWPOnP/1p7NixYqsm0jOpN23ZsqVdu3Ziq23Hjx+/8cYbX331VbFDq507dxoPcsCAARH9BlVdVaFrHgCxh/MDALiOUzFUSWuGGA5ArDly5EhCQsLOnTvFDh2kZ1Jv+vLLLzt06CC2qjhw4ECTJk3mzJkjdmh1/vz5oUOHNmvWbPPmzWKfJrqqQtc8AGIP5wcAcB2nYqiS1gwxHIAYlJ2d3b17d7FVB+mZ1Jv++c9/3nrrrWKrot27dzdq1KgS3je6ZMkSn88XoYvvdFWFrnkAxJ61a9ca54f33ntP7AAAVJbly5cbp2LjhCx2ABWQvrwnhgMQg0pKStq2bRuJ7Yr0TOpNn3322e233y62qtuzZ0+TJk1mz54tduiWl5fXqVOn3r17V/SJdY7pqgpd8wCIPfn5+dWrV7/++uunTJmyEgDghl69el122WWHDx8Wz9FABVbKXt4TwwGITevXr2/cuPHZs2fFjvBIz6Te9Omnn3bu3FlsdWTv3r1NmjSZNWuW2KFbSUnJqFGjGjZsuGHDBrEvDLqqQtc8AGLS2rVrk5KSLgEAuOSyyy4bPXq0eHYGKiZ9eU8MByBmpaenZ2RkiK3hkZ5JvWndunV33XWX2OrUvn37mjdvPmnSJLEjAlasWJGYmPjiiy9euHBB7HNEV1XomgdADNu/f/9KAEClW7169ZEjR8STMhDUStnLe2I4ADHr8OHD8fHxer+rQXom9Sbjtcgf//hHsTUMR48evfnmm59++unS0lKxTzejNrp165aamrpv3z6xT52uqtA1DwAAAADXSV/eE8MBiGXZ2dl333232BoG6ZnUm1atWtWtWzexNTyFhYXG32vAgAHFxcVin25lZWWvvvpqQkJCbm6u2KdIV1XomgcAAACA66Qv74nhAMSy0tLSjh07vvXWW2KHU9IzqTd99NFHPXv2FFvDdv78+X79+t199935+fliXwRs2bKlVatW6enphYWFYp9tuqpC1zwAAAAAXCd9eU8MByDGbdmypX79+j/88IPY4Yj0TOpNH3744b333iu26lBaWjpy5MiUlJQdO3aIfRFQVFQ0dOjQJk2abNy4UeyzR1dV6JoHAAAAgOukL++J4QDEvtGjR6enp4utjkjPpN60dOnSvn37iq36vP322z6fb/Xq1WJHZHz44YeJiYkvvPBCSUmJ2BeKrqrQNQ8AAAAA10lf3hPDAYh9RUVFzZs315JuSM+k3rR48eIHHnhAbNVqw4YNiYmJM2fOFDsi48iRIz169OjUqdOePXvEvqB0VYWueQAAAAC4TvrynhgOgCesWrWqadOmZ8+eFTsUSc+k3rRw4cIBAwaIrbrt3bu3Xbt2f/rTn8L/29k0bdq0hISE1157TeyomK6q0DUPAAAAANdJX94TwwHwiocffnjEiBFiqyLpmdSbcnNzdb3VN7iioqJHH320bdu2O3fuFPsiY8eOHbfddlu3bt0OHDgg9snoqgpd8wAAAABwnfTlPTEcAK84fvx4gwYNvvzyS7FDhfRM6k3/+Mc/HnnkEbE1YubMmePz+RYvXix2RMaFCxcmT56ckJAwd+5csS+ArqrQNQ8AAAAA10lf3hPDAfCQd955p3Xr1ufPnxc7bJOeSb3prbfeGjx4sNgaSV999VWzZs2eeOKJSnuD6jfffNOuXbs+ffocOXJE7LPQVRW65gEAAADgOunLe2I4AN7Sr1+/0aNHi622Sc+k3jRnzpzHHntMbI2wwsLChx9++MYbb9yyZYvYFxnFxcXjxo2rX7/+woULxb6LdFWFrnkAAAAAuE768p4YDoC3HDt2LDExcdOmTWKHPdIzqTfNnj37iSeeEFsrxfz58xMSEqZOnVpWVib2RcbmzZtbtWr14IMPnjhxQuzTVxW65gEAAADgOunLe2I4AJ7z3nvvtWzZsqioSOywQXom9aaZM2cOHTpUbK0seXl5d9xxx9133713716xLzLOnz8/YsSIpKSkBQsWCF26qkLXPAAAAABcJ315TwwHwIvS09OHDRsmttogPZN607Rp05w9h7qUlpa+8sorCQkJ06dPr7TL4j7//PO2bdv27t17//79ZqOuqtA1DwAAAADXSV/eE8MB8KKTJ08mJSWtX79e7AhFeib1pqlTpw4fPlxsrXQ7d+684447OnfuvGvXLrEvMoqLi7OysuLj46dNm1ZaWvqjvqrQNQ8AAAAA10lf3hPDAfCoZcuWNW/e/MyZM2JHUNIzqTdNmTJl1KhRYqsbSktLp02blpCQ8NJLLxUXF4vdkbFz58677rrr1ltv/eabb3RVha55AAAAALhO+vKeGA6Adw0ePFj1uz6lZ1Jvmjx58tixY8VW9+zdu7dXr16tW7d2cJGjY3//+999Pt/AgQMvvfTS8KuC6gIAAABihvTlPTEcAO86ffp0SkrKokWLxI6KSc+k3jRp0qRx48aJrW5bsmRJo0aNBg0adOzYMbEvMo4ePdqlS5err776pZdeEvsUUV0AAABAzJC+vCeGA+BpX375pc/ny8vLEzsqID2TetOEcmJrFDhz5szIkSONP+usWbNKSkrE7ggw6uGKK64wjjho0KAjR46I3bZRXQAAAEDMkL68J4YD4HWvvPJKamrqhQsXxA4Z6ZnUmzIzMydNmiS2Ro1vv/22a9euN95444oVK8Q+3fxVsXTp0jFjxsTHx7/88svOPqKO6gIAAABihvTlPTEcAK8rKyvr0aOHzfdXSs+k3jR27NjJkyeLrVFm2bJlLVu27N69+/fffy/26WOtil27dvXu3ds4qIP4j+oCAAAAYob05T0xHAD86+O9kpKSPvnkE7EjgPRM6k2jRo2aMmWK2Bp9iouLp02b5vP5nnzyyXDeMRpEYFV89NFHKSkp99577+7du83GkALnAQAAAFBFSV/eE8MBwL8YJ8dGjRqdPHlS7Pgp6ZnUm4YPHz516lSxNVrl5+ePGDGibt26Y8eONW6L3eGRVkVxcfGUKVPi4+ONI54+fdraVRHpPAAAAACqIunLe2I4APg/I0aM6Nu3r9j6U9IzqTcNGzYsOztbbI1uhw4devzxxxMSErKyss6cOSN2OxWkKo4cOTJo0KDk5OTc3FyxL0CQeQAAAABULdKX98RwAPB/iouLb7vttpdeeknssJCeSb3p6aefnjlzpthaFezateuhhx5q0KBBdnZ2UVGR2K0uZFVs2rSpY8eORnWtWbNG7LMIOQ8AAACAqkL68p4YDgD+7eDBg0lJSatXrxY7LpKeSb3piSeemD17tthadXzzzTcPPPBAgwYNXnrpJZtvGq2InaooKytbsGBBSkpK165dN2/eLHaXszMPAAAAgCpB+vKeGA4AfuKTTz5p0KBBXl6e2FFOeib1pscee2zOnDlia1Xz7bffPvTQQz6fb9KkSQUFBWK3PfaroqSkxHjSkpKSHnjgge3btwu99ucBAAAAEOWkL++J4QBAlJ2d3b59+3PnzokdFZxJvenPf/7zW2+9JbZWTTt37nz00Uf9X6fg4NtUVavCKK2XX37Z5/MNHjx4//79ZrvqPAAAAACilvTlPTEcAEikp6cPGjRIbK3gTOpNjzzyyLx588TWqmzfvn3PPvts3bp1Bw8e/O2334rdFXNWFYWFhePGjatXr96wYcOOHTtmtKxdu9aY57333hOHAgAAAKhqli9fbry8N17kWxuJ4QBAoqioqF27doFfQeAscIlJ6enpdr79s8o5efLk5MmTGzRo0LNnzyCfEmgVTlUcO3Zs2LBh9erVGzNmzI4dO6pXr3799ddPmTJlJQAAAICqrFevXpdddtnhw4etr/+J4QBAbu/evfXr1//000+tjSvDCFxizMCBAxcsWCC2xori4uI333yzdevW7dq1e+ONN4J/oWr4VbF///5nnnnmhhtuMP5TbVTdJQAAAACquMsuu2z06NHCK39iOACo0MqVK5OSkvbt22dtuSS8wCVm9OvXb9GiRWJrzFm1alXfvn3j4+Ofe+65Xbt2id3ldFXF8ePHJ0yY4PP5evToMX369H/9HzQAAAAAVdDq1aulnzpNDAcAwcycOfPGG2/Mz8/3/7hSU+ASA+67774lS5aIrTFq//79Y8aM8fl8PXv2/PDDD0tLS629equiqKhoxowZTZs27dKly7Jly8RuAAAAAFUWMRwAhDBixIguXbqcP3/+R92BS5XWp0+fDz74QGyNaUYN/OMf/7jtttuSk5PHjRuXl5fnb49EVVy4cOGdd965+eab27Ztaxy0uLhYHAEAAACgqiGGA4AQysrKBgwYMHDgQONGJAKXKqpnz57Lly8XW71h69atw4YNi4+P79at28KFC/1fgRShqli1alXXrl2TkpLGjh27e/dusRsAAABA1UEMBwChnT9/vnPnzqNHjyaGM3Xv3t3jz4NRFQsWLOjWrVtcXNwvfvGLWbNmiSP0+f7770eMGOHz+e66666cnJxz586JIwAAAABEPWI4ALDl5MmTLVu2fPrpp4nh/Lp27bp69Wqx1ZPmzZv3n//5nw0aNGjVqtXkyZP3798vjtCkuLj4vffe69mzZ7169Z566qmvvvpKHAEAAAAgihHDAYBde/furVev3hVXXEEMZ7jrrrvWrVsntnqSeY3kxo0bn3zySaNIunTp8ve//72goEAcqsmhQ4eysrKaNm3arl27GTNmmF8hAgAAACCaEcMBgIIZM2b86le/evXVV8UO7+ncufOGDRvEVk8S3qpcXFy8dOnSfv36xcXF3XvvvW+88Ubkro9bvXp1enq6caDu3bu//vrrhw4dEkcAAAAAiBrEcACgYOXKlVdcccUNN9ywdetWsc9jUlNTP/vsM7HVkyr6xMBTp07l5uY+/PDDCQkJrVq1euaZZ4wf9+7dKwwL3+nTp999991HHnmkbt26bdq0efLJJ+fPn3/gwAFxHAAAAABXEcMBgAJ/4JKRkZGcnByJPKUKue222z7//HOx1ZMqiuGsvvjii+zs7AceeCApKSkhISEtLW348OFz58796quvCgsLxdFOlZaWfv311/4D1a9f3/9drs8//3xubu7mzZsj9yZZAAAAAHYQwwGAAjNwef3115s3b37kyBFxhGd07Nhx8+bNYqsn2YnhrA4dOrRs2bKXX345PT29Xbt2tWvXjo+Pv/XWWwcOHDhmzJhp06a9++67n3766b59+86ePSveWcUPP/ywfPnyKVOmDBgwoEOHDnFxccaBOnXqZBx31KhRxoEWL168ceNG40CnT58W7xwxBw8e3PdTxmNY91NLliyZq2j+/PnCJMbTuHbt2k/Lffnll5E7kGHnzp3+3+XYsWPiLwwAAABcRAwHAAqsgUtWVtZNN93k2SuM2rdvzzd1+qnGcIGOHTv2+eef5+bmTp48+ZlnnunXr19qamqTJk2uv/76X//618aNNm3a3HXXXT179ny03IRykyZNMrOhDz74QEyGyu3evdsaeH355Zfz58/PzMwcMmTIAw88cOeddxozN2jQ4LrrrjMOZNxo3rx5u3KdO3c2eu8rd//996enp/tvP/jgg8YDMH7sYdGlS5dbb72100WtWrVKTk5OTExsUK5mzZrXWCQkJPjbDcbt+Pj4Fi1a/OEi47bx+xo3bi7Xtm3bFhZGl3lfQ926df+fxW9+8xvrgYzj/vaia6+91t9Yq1zt2rVvuOEGY4amTZsaR7n99tvvueeeXr169e/f3/8Mh2T81ndZpKSkNCln/Eb+A/l/vOWWW4zeQYMGPfXUU8afbPbs2UuXLjX+1pH7uEAAAABEM2I4AFAgBC7Dhw9PTU0N85KlKqpdu3ZbtmwRWz0p/BguiLKysn379m3dunXdunXLly+fO3fu22+/7Y/hMjMzzVTo3nvvtaZCVsZfyh8J+aWkpIgjynXp0qVTp0633HKLMd643blzZ6O2/VmY0dKqVSv/beOGMUnTpk3N4MzQunXrpKQkMx1LTExMTk42RvpTuTvvvFM82EXp6emWaOtfnnnmGf9v5zd58uR/X4c2d+6iRYusIaNRgdaQ0c5KzMvLM0Z+8cUXxt2NCWfNmmUcZciQIX379r311lsbNWp0zTXXNGvWrGvXro8//vjf/va3999/39nbzyvtQAAAAKhCiOEAQIEQuJSVlT366KNpaWnFxcU/GecBbdu25Xsq/CIaw6GSGYt69+7dq1atev3110eOHNm7d++GDRvWrl27U6dOw4YNW7hwoa7vvqi0AwEAACB6EMMBgILAwOXChQt9+/YdMGBAaWnpv8d5QOvWrb/77jux1ZMCqwIxpqCgYMOGDS+//PJ9991Xv379xo0bDxky5P333z9z5ow4NDyVdiAAAAC4ghgOABRIA5fz58//8Y9/fPzxx62NMe8Pf/jD9u3bxVZPklYFYtiOHTumTp3atWvXuLi4/v37v//++xG6HtY8UJ06de6999558+Z59sMoAQAAYgMxHAAoqChwOX369G233TZq1CihPYalpKTs3LlTbPWkiqoCMa+goGDOnDldunSJj48fOnTopk2bxBGaGGeY3Nzc++67Ly4uLi0t7a233srPzxcHAQAAIOoRwwGAgiCBy8mTJ9u0aTN58mSxI0Y1b9589+7dYqsnBakKeEReXl5WVlbLli1TUlJefPHFffv2iSM0OXPmzIIFC/r37x8XF9ezZ8+5c+dyfRwAAEAVQgwHAAqCBy6HDx9u0aLF9OnTxY5Y1LRp08hlDVVL8KqAp3zxxRfPPvusz+dLS0tbvny52K3PmTNn5s+f778+rm/fvgsWLCgqKhIHAQAAIMoQwwGAgpCBy/79+5s0aTJnzhyxI+Y0atTI+GXFVk8KWRXwmuLi4nnz5rVv375ly5YzZsw4ffq0OEIfY3LjWN27d4+Li3v44YdXrFhx4cIFcRAAAACiAzEcACiwE7js3r27YcOGOTk5YkdsSU5OPnTokNjqSXaqAt60cePG/v3716tX77nnntuzZ4/YrdWxY8dmzZp1++23N2jQYPjw4Vu2bBFHAAAAwG3EcACgwGbgsn379qSkpHnz5okdMSQxMfHw4cNiqyfZrAp41sGDB0ePHp2QkNCnT5+NGzeK3brt3Llz3LhxjRs3bteu3fTp0/kyBwAAgOhBDAcACuwHLt99911iYuLrr78udsSK+vXr//DDD2KrJ9mvCptOnjy5EjHnww8/fPbZZxs0aNC+fftXXnlF7LZh/fr1Yq0E9fHHH/fv37927doPPfTQunXrxG4AAABUOmI4AFCwUiVw2b59e2JiYnZ2ttgRE+Lj448fPy62epJSVQRXVlY2ceLEatWqXYLYdeWVV1599dX/9V//9fOf/1zsC6Vdu3aqX8Vw9OjRv/3tb82bN2/duvWMGTMKCwvFEQAAAKgsxHAAoEA1cNmxY0dSUlJWVpbYUfXVrVuXN7v5qVZFEBMnTjSm6tat29KlS/0XQCEmffTRRyNHjkxOTm7duvVf//pXsbsCU6dOveyyy5566imxbuxZtWpVv379jJU7bNiwvXv3it0AAACIPGI4AFCwUj1w2bNnT/PmzTMyMsSOKi4uLq6goEBs9SQHVSFVVFR05ZVXdu3aVexAjCotLZ0/f36rVq06deq0Zs0asVumR48eNWrUOH/+vNhh26FDh4YPH26s3wceeGDz5s1iNwAAACKJGA4AFDgLXI4cOdK2bdvnnntO7KjKateuffr0abHVk5xVRaD169cb8yxZskTsQEwrKytbsGBBixYtevTosXXrVrH7p4zyMIpk4cKFYoei/Pz8rKwsn8/XvXv3DRs2iN0AAACIDGI4AFDgOHAxNr2pqanp6enhXMYSVa6//vqzZ8+KrZ7kuCoEuuZBVVRcXDxz5swGDRoMGjTowIEDYvdFJSUl11577R133CF2OHLu3LlZs2Y1b978nnvu+ec//yl2AwAAQDdiOABQEE5QYux4H3zwwc6dO588eVLsq4Jq1aoVM5FimMKpCitd81gNHTr0/fffF1u9JELPQFFR0eDBgzdu3Ch2hOfxxx8fMGBA3bp1R40alZ+fP378+DfffFMYY/xGl19++cGDB4V2x0pKSl5//XWfz3f//fdv375d7AYAAIA+xHAAoCDMoKSsrGzMmDEpKSk7d+4U+6qa3/3ud8XFxWKrJ4VZFSbpPEOHDh18UWAiE0hIna666qrnn3/e0q/BjBkzzIdk2LFjhzjipyIUhAWSHigSz4DhL3/5izFzTk6O2KEi8AH7H+2RI0cef/xxn8/XuHHjSy+9VBizfft2o1H7x02eOnUqMzOzTp06w4YN42MfAQAAIoQYDgAUSIMSVX//+9+NDfZHH30kdlQpv/nNb0pLS8VWT9JSFT9WMM9V5a4rZ5RNYMwkEFKnSIRQDz74oPFgfvazn/kfWMhPFlN9DMbg5cuXi602SA/UpEmTl156SWgMn/RYSiq8QBoAACjjSURBVEaOHFmtWjVhEuuj3bFjR58+ff73f//3/vvvt44xtGnTpk6dOmVlZUJ7+A4ePPjoo48alfbWW2+JfQAAAAgbMRwAKJAGJQ589tlnycnJWVlZYkdUKiwsrFWr1jWhGGOMkeKdPUBXVUjnscY95m3rVVTBL38zfuzWrZtwMZ3/DZVCozHPpEmThMYghAMFubswUnp0a6PxJJi/ZuCc0rv7BUZj48ePN4ZZnx/p3aUHCsIY/5vf/Maa7klnqOjPVFpaagyrVq3apZdean3AgY/WUL9+/V/96le33HLLrl27zMY33njDeJZWrVplGajTV199dfPNN99zzz27d+8W+wAAABAGYjgAUCANSpw5fPhwamrq/fffXyWiqz59+gR//53Ra4wRW71BV1VI55HGcNLGt99+27hRrVq1Nm3aGDf27Nnj772k3HXXXWf86494/vSnP/lbrI3SkUEE5n2Bd5c+pF69elmPvmDBgh8DHlLHjh0rmvPpp5+2jvRHUdIDGW677baf/exn1scZid/d33LppZeaM/gflfTPdO7cueeee+6Xv/yl8a8wT+Cj9TOGdenSJT4+fuzYsf6vJz579qzR2Lt3b2GkRsXFxePHj69Tp860adMicdkdAACAN10iNgAAKiYNShwzNrpPPfVUixYtvv76a7HP4tixY2JTpQuZsoXM6WKYrqqQznPVVVf5oyWD0eu/Akua7/Ts2dMfBlWrVs24sXbtWn+v4eOPP7aOlN5dOjIIYYz07hU9JOnRpY2Bc9aqVSszM1MYKT2QMCbwx+AHCiJwjNFiHNr/XlrrtIHHSklJue6661555RVhgDAssPHIkSODBg1KTk7Ozc39sTxPvPLKKyP9fS/Gqemmm27q3r374cOHxT4AAACou0RsAABUTBqUhOndd9/1+XwzZ84UO8rt3LkzISHhm2++ETsqV2FhYVxcXEUX7gXvjXm6qkI6jz/f8edE6enpZmNgvhPyx+DxkLQxCDsHquhHM1g0PxxNendro/mhaRkZGTfffLNwd+GOVoFHD34g6SSCwDHSGSpqtP76xu3NmzdfnEYys9C4adOmW265pXPnzu+8845RLVOmTPnpWP2Ki4szMzMbNGgQuffAAgAAeMclYgMAoGLSoCR8u3fv7tChQ79+/YQvKCwpKenYsWP//v2bNWsW6cteQgpyvVvIa+Vim66qkM4TMpcJEjMJP4aMhwIbg7BzoIp+NINFg//Stvr16//P//zP8+WkF/2Z/O/99N9X+Gw16fjAowc+TmljEIFjpDNIG2vVquV/8FddvHzP+ml0gTMHNpaWls6ePTshIaFOnTrJycmWgRG0du1a4280ceJE3qAKAAAQjkvEBgBAxaRBiRbFxcXPPvtskyZNPv30U7Nx3LhxvXr1+rH8SxW7det24cKFf9+h0gXJ2oIkdF6gqyqk80hzmXPnzvUq93yoK8KkSZD9xiDsHCjkj5mZmf5rrPLz8y+xCPL+ULNxzpw5wX93aaP0cUobgzDG3H777Zs2bbK2tGnTZseOHf7b/hmC/JnMewmNgS0zZ8685OJ3VlgdPXr05ptvvvrqq6dPny50Rci+fftuuummvn37njlzRuwDAACAPZeIDQCAikmDEo1WrFiRnJw8bty4kpKSzz77LDEx0dhsG+0XLlzo1q3byJEjxTtUooreeVpRu3foqgrpPIG5jKGgoMAfV10VcEXYlVdeaTRmZWXt37//xwoCJnOMwYx4pCOlFi1aZNzRmKRjx47BD+QnPCT/9+r6j169enX/1XCTJk3y/zpXlX9bwj333BM4j595d2NY8N9d+jjD/N1NwjDjx8suu2zAgAH+af2/VJA/k3kvodFOi+nkyZO//OUva9euPXDgwCNHjojdEXDmzJl+/frdfPPNhw4dEvsAAABgwyViAwCgYtKgRK9jx4716dOnQ4cOjRo1Wrp0qdlubLmbNWvm/1pJt0ivegtylZxH6KoK6TxBUhg/YYB5WVmQL+u0XnrWt29foVe4HejOO+80735J0AP5CQ/J/tGlD8O8e926dYMfSPo47R89uGrVqhkzmB/rZtyrefPmwrRW0mn9jRs2bPB3TZ069ZKfXvgW2CLo3bu3McmoUaMSEhJee+210tJScUQETJo0KTk5+dtvvxU7ykXDV8oAAABErUvEBgBAxaRBSSR07ty5du3aZ8+etTZ+88037n5dgzRxk2ZznqKrKuzPc/78ef/1XNZLuqo04SK1jh07iiOiTEFBgfGAzY91k6ZsNv9Mr7zyitHrH2N+C4ffjTfeKLQIVq1aZdzrjTfe+O677+64447U1NTt27eLgyIgNzfX5/NZ35br98knnxjnKK6VAwAAqAgxHAAosB+UhGPp0qXNmzeXXlSyYMECF7+uIfD9p4EtHqSrKuzPI72kq0oTPhuuosQqakljOPt/psGDBxtj2rRpI3aEUlZWVqdOHf8djduvvfZafHx8VlZWSUmJOFS3xYsX33DDDatXrzZbPvnkE5/P17t37yFDhlgGAgAA4N+I4QBAgf2gxLGjR48mJiZ+9tlnYsdF7n5dg3Dtm/T6OK/RVRW65oGnZGRkXHrppeZFcAcOHOjZs2e7du2++uqrnw7U7/3334+Li/Mncf4Mzvg3Pz8/ISFh165d4mgAAAAQwwGAkkoISnr16jVu3Dix1cLdr2sQcjfekfqjvqrQNQ885eDBg5dffvnQoUOtjcaqrF+//pgxY86dO2dt127FihX16tXLzs72Z3D+xqysrIEDB/50IAAAAP6FGA4AFEQ6KJk9e3bHjh1DvqHMxa9rsL4LlXek+umqikWLFhnzTJo0aSWgIiUl5b//+78XL15sbVy4cOGdd96ZlJT06quvWtu1GzJkyLXXXjt58mSz5f33369Xr95rr71mGYV/W7169alTp8T1DwAAvIEYDgAUrNQUuEgdPXr0hhtuaNeu3cSJEzdu3Bg8jHPx6xrMK+B4R6qfrqqYNGmS/3PEAF2uuOKKq6+++he/+MWll14q9unw85///Fe/+pVxFKH9P/7jP2rUqCE0wlS9evV169aJpwAAAOABxHAAoEBX4FKRs2fPGpOPHDmyffv2tWvX7t27d3Z29rZt28Rx5dz6ugYzfeMdqX66qmLx4sWXlH9j5ipAxUcffWSUjXA1nMlov/vuu5OTk7VfFvfyyy/HxcUZ/4odK1cuW7asQYMGr7zyitiBlSvfe++93//+98ZfRDwFAAAADyCGAwAFKzUFLnacPHny3XffHTJkSIsWLerXr5+env7mm2/m5eVZx7jydQ3+96IePHiQd6T66aoKXfMAgZYuXZqUlPTcc88VFRWJfY6Y38kgdlyUk5OTmpoqtqLc1KlTjcW+Z88esQMAAMQ6YjgAUOBWUJKXl/fmm2+mp6fXr1+/RYsWQ4YMeffdd0+ePOnW1zX06dOnR48evCPVT1dV6JoHkDLOGMY5JCUlZePGjWKfouPHj8fHx/fu3Ts/P1/su6i0tPSmm2764IMPxA78+OPy5cuNxb5mzRqxAwAAxDpiOABQEA1BybZt27Kzs40NcO3atdu3b/+Xv/zlt7/9bSV/XUNOTs4111zDO1L9dFWFrnmAIPyXxT3//PNhfonqoUOHhgwZkpCQkJWVdfbsWbG73AcffHDTTTeVlpaKHZ7HYgcAwLOI4QBAQTh7p4KCggkTJmRmZmZoMmbMmEceeaRLly6NGjWqVavWY489Jo6ImBEjRhhHNP4VO6om448SzmUp4VSFla55gOBOnjw5YMCAP/zhD//85z/FPkW7du166KGHEhMTZ82aVVxcLHb/+GNqaip5fSAWOwAAnkUMBwAKwtk7TZgwIS8vryAyjhw5YuyoxdZImj59uthUlc2fP3/u3Lni38yecKrCStc8gB2LFi1q0KBBRkaGND5TsmXLlrS0tGbNmuXk5AjXvq1fv95oD/8QMYbFDgCAZxHDAYCCcPZOY8aMEbMfRI3CwsKMjAzxb2ZPOFVhpWsewKajR4/27dv3pptu2rJli9inbv369ampqW3btv3www+t7WlpaTNnzrS2gMUOAIBnEcMBgIJw9k7EcFFuwoQJ4t/MnnCqwkrXPICSnJwcn883adKkkpISsU/dhx9+2LZt29TU1PXr1/tbtmzZkpSUdObMmZ8O9DQWOwAAnkUMBwAKwtk7EcNFOWI4eNahQ4fS0tJuueWW7777TuxTV1pampOT06xZM2NO/3V2AwcOzMrKEsd5GIsdAADPIoYDAAXh7J2I4aIcMRw8bs6cOQkJCS+//LKW7zYtLi6eNWtWYmLiQw89tGLFCmPm/Px8cZBXsdgBAPAsYjgAUBDO3okYLsoRwwF5eXl33313amrqrl27xD5Hzp49m5WVlZCQcP31148aNUrs9ioWOwAAnkUMBwAKwtk7EcNFuaobw82dO9eorvGoRK+++molf/uncbipU6eKjyMCXnjhhbS0tLi4uIyMDLHPqdGjR99xxx3XXXfd8OHDxb6YkJubK/7BgnK82AEAQFVHDAcACsLZOxHDRbkqGsN9/PHH//jHP8RfBhG2ffv2oUOHnj9/Xvx7RIZxoCeffPL7778XH0fEHDlyRGwKm/H4jfIWW2PC/Pnz16xZI/7ZKuZssQMAgBhADAcACsLZOxHDRbkqGsMZdZWfny/+Moi8HTt2ZGdni3+PyJg6dWplZnBQZazBzMxM8c9WMWeLHQAAxABiOABQEM7eiRguylXdGE78TVBZxo8fL/49IiMzM1M8NqIMMRwAALCDGA4AFISzdyIuiXLEcFDluGZUEcNFP2I4AABgBzEcACgIZ+9EXBLlHEcq4VSFlbN5qCsXOa4ZVcRw0Y8YDgAA2EEMBwAKwtk7EZdEOceRSjhVYeVsHurKRY5rRhUxXPQjhgMAAHYQwwGAgnD2TsQlUc5xpBJOVVg5m4e6cpHjmlFFDBf9iOEAAIAdxHAAoCCcvVPIuKRGjRo1yy1ZskTskzFGik22HThwwH8s44bY54ZwfhddHEcq4VSFlbN5QtYVIsdxzagihot+xHAAAMAOYjgAUBDO3ilkXGJGUWlpaXbSsXCiK/O+4UyiUTQ8DMeRSjhVYeVsnpB1hchxXDOqiOGiHzEcAACwgxgOABSEs3cKGZdYoyjztnnZWuCVa0J0FWRkoNatWws3rHefMmVKkMZt27aZjcbtwJHm0aWNUjVlMZz07taR5m3pQ6pZfl2hcPcgHEcq4VSFlbN5QtYVIsdxzagihot+xHAAAMAOYjgAUBDO3ilkXCINmFq0aGE2JiQk+G/07dvXGHD55Zcb/xq3g4yUkh7IepdnnnlmwYIFFTVK725tNB+JtFHKOtIk/Y1CHt28XaNGjbS0tMABFXEcqYRTFVbO5glZV4gcxzWjihgu+hHDAQAAO4jhAEBBOHunkHGJNEuyEhqlY/yCdBVUcCDpXUI2mrfNq+qspI1S0gNZSR+n/UY7j8RxpBJOVVg5mydkXSFyHNeMKmK46EcMBwAA7CCGAwAF4eydQsYl0iypTp06NS+qUaOGOcA6xi/ISIH5XRDWkcJsQRqtdzcHSN9AKm2UMuexkv5G1pHmbelDso60w3GkEk5VWDmbJ2RdIXIc14wqYrjoRwwHAADsIIYDAAXh7J1CxiXSgEnaGPLH4AmUdKT0LvYbrRo2bCg2VdBoks4pfZxWDh58EI4jlXCqwsrZPCHrCpHjuGZUVUIMp7peICCGAwAAdhDDAYCCcPZOIeMScxts/aZU8zPRjMbgV8MFGSmQxlvSj4EL2Wh+fJv0c9ykjVLSCED6G1mvsDMbpQ9JOmcQjiOVcKrCytk8IevKcOLECf8zJnyeoHb2r3+MEqpFInBcM6rsxHDWa0LtPPnC7x7mUyHlqXoghgMAAHYQwwGAgnD2TiHjEnMXvWTJErPR3Mf6v/TTMvz/usxIJchIgbXXvG3dMAf/plTp1tp+o5TwrlJ/3hfyNzIbpQeS3iUIx5FKOFVh5WyekHVlpfqcqLLOH+ljaRHmg3RcM6rsxHCqT74wxs5dVKk+JNeF8yCJ4QAAgB3EcACgIJy9k1JcAjvC2TMHchyphFMVVs7mUaor6zMWMrs0b0tHSlnvbn4thvTuZvC6bds2a1fNi6mrdbB0BulIc7aa5TMHGWl2WX+UHigIxzWjynEMJ22s6MfAZ0n6hEhHStX0Uj0QwwEAADuI4QBAQTh7J6W4BBVR2hgrcRyphFMVVs7mUaora8ogfcuwdYB5WzpSynp3aaN5u6IbNWrUSEtL87cEf1TWkYGzWW9LR/bt27dmwLt0rXe3/tYVcVwzqlRjODPzkj4h0t9d+ixJ7y4dKSXtlc5Z0Y0qVA/EcAAAwA5iOABQEM7eSSkuQeVzHKmEUxVWzuZRqitpLFJgaW9dzn/beDD/HnFRRTP4SXulUUhFN4IP1tgo/dH83W1yXDOq7MRwNWSfDWf/d5eOtN8oJe2V3r2iG8EHa2yU/qhUD8RwAADADmI4AFAQzt5JKS5B5XMcqYRTFVbO5lGqK2vKUKdOnZoX1bB8p0dgWlHRyEDmXSpqDJxcuBF8cMhGaxQVfKT0R9VrLR3XjCo7MZzwuwQ2Bv/dpSPtN0pJe6V3r+hG8MEhGyuzHojhAACAHcRwAKAgnL2TUlyCyuc4UgmnKqyczROyrqxX9FQUQEhvB94Qbgey9gZ/X2RFN4IPVmo0SUdKf7Rq2LCh2BTAcc2ochzDWQX/3aXPkv1GKWtvzNcDMRwAALCDGA4AFISzdwoZl5gOHDjQoUMHsbWyBNmIOhbOnMZTEfI6FC0cRyrhVIWVs3lC1lVFoYP5SVtpaWnCNW5xcXHt27c3fwwyUiA9VvBG4Yb9zwKTNlo/us78MC/pSOmP9j8Fz89xzahyHMNZr+cS/nZBnorgT7K0UUo6MnijcKMK1QMxHAAAsIMYDgAUhLN3ChmXmIStoPV9VcFDEC2kH4ckPCRV0jntC/PoNjmOVMKpCitn84Ssq4reWGe2+7810nKPf30qXFxcnPljkJEC6bGkjeY8wo2asm+xDD6D9bb9kX7+8eZH8kvvHoTjmlHlOIazCv67S58l6RMiHSklvbu00ZxHuFGz6tQDMRwAALCDGA4AFISzdwoZl/idPHmybdu21pYgm8ZK49Zx/cJM8WxyHKmEUxVWzuaxWVdVhbuVpspxzaiyE8OFVLWeW78q9JiJ4QAAgB3EcACgIJy9k824JHDbKY3htm3bZl6mYdw2e21eOSJtLCh/B6j0gruasmtGhLvXlB29QDan9MFL5zTVDHhatHMcqYRTFVbO5rFZV1VFJfyhNXJcM6ocx3DBl1X0q0L1QAwHAADsIIYDAAXh7J1sxiWB205rS/CPOXf2OUrWzz8qCHgAffv2NVouv/zymqHev2Y9ujBJkB/tPKSCgBkiwXGkEk5VWDmbx2ZdIRIc14wqxzEcKg0xHAAAsIMYDgAUhLN3shmXBOZN5mfDVa9e3X64FrwxyNs8Ax9AYKN0TmujML+duwd5SAUBM0SC40glnKqwcjaPzbpCJDiuGVXEcNGPGA4AANhBDAcACsLZO9mMSwLzJrMlKSmpUaNG/tvW720wB0jjLWljkLeqWcdX1CidU3pHP6FL+uCDPKSCgBkiwXGkEk5VWDmbx2ZdIRIc14wqYrjoRwwHAADsIIYDAAXh7J1sxiWBeZO1xbwdOExolI6U3qthw4bWH6VjhEbpnNI7+gW5u5TwkAps3CV8jiOVcKrCytk8NusKkeC4ZlQRw0U/YjgAAGAHMRwAKAhn72QzLrH5Tanmu1MLLJ+kZv+z4awfvmadqqCCwCtIjuYghpM++CAPKfj7VXVxHKmEUxVWzuaxWVeIBMc1o4oYLvoRwwEAADuI4QBAQTh7J/txiZ3MS/oWzpqy7yqVjpQ2Sr+NwTrebJTevaYshpPOKb27tNGvpmxm7RxHKuFUhZWzeezXFbRzXDOqiOGiHzEcAACwgxgOABSEs3eyH5ccOHCgQ4cOYqsNlRNXVTLjqQj8qLhIcByphFMVVs7msV9X0M5xzagihot+xHAAAMAOYjgAUBDO3qkS4pKYjOEqjeNIJZyqsHI2TyXUFaQKCwsd14yq0aNHi4dHlBk3bpz4Z6uYs8UOAABiADEcACgIZ+9EXBLlHEcq4VSFlbN5xo8fn5eXJ/4yiLzc3Nx33nlH/HtExttvvz1v3jzxESBqGGtw0qRJ4p+tYs4WOwAAiAHEcACgIJy9EzFclKuiMVx+fv748eMzMjLGonKtXr1a/GNE0qpVq4xziPggEAUyMzNffPFF4xwi/s0q5myxAwCAGEAMBwAKwtk7EcNFuSoawwGocljsAAB4FjEcACgIZ+9EDBfliOEAVA4WOwAAnkUMBwAKwtk7EcNFOWI4AJWDxQ4AgGcRwwGAgnD2TsRwUY4YDkDlYLEDAOBZxHAAoCCcvRMxXJQbP368+DezJ5yqsNI1D4Aox2IHAMCziOEAQEE4e6fRo0fn5+eL2Q+iw/bt27Ozs8W/mT3hVIWVrnkARDkWOwAAnkUMBwAKwtk7rVq1at68eWL8gyjw/fffP/XUU+fPnxf/ZvaEUxVWuuYBEOVY7AAAeBYxHAAoCHPvlJOTMy5WXHPNNWJTlTV16tTi4mLxr2VbmFVh0jUPgCjHYgcAwLOI4QBAAXsn0zXXXCM2eZWuqtA1D4Aox2IHAMCziOEAQAF7JxMxnElXVeiaB0CUY7EDAOBZxHAAoIC9k4kYzqSrKnTNAyDKsdgBAPAsYjgAUMDeyUQMZ9JVFbrmARDlWOwAAHgWMRwAKGDvZCKGM+mqCl3zAIhyLHYAADyLGA4AFLB3MhHDmXRVha55AEQ5FjsAAJ5FDAcACtg7mYjhTLqqQtc8AKIcix0AAM8ihgMABeydTMRwJl1VoWseAFGOxQ4AgGcRwwGAAvZOJmI4k66q0DUPgCjHYgcAwLOI4QBAAXsnEzGcSVdV6JoHQJRjsQMA4FnEcACggL2TiRjOpKsqdM0DIMqx2AEA8CxiOABQwN7JRAxn0lUVuuYBEOVY7AAAeBYxHAAoYO9kIoYz6aoKXfMAiHIsdgAAPIsYDgAUsHcyEcOZdFWFrnkARDkWOwAAnkUMBwAK2DuZiOFMuqpC1zwAohyLHQAAzyKGAwAF7J1MxHAmXVWhax4AUY7FDgCAZxHDAYAC9k4mYjiTrqrQNQ+AKMdiBwDAs4jhAEABeycTMZxJV1XomgdAlGOxAwDgWcRwAKCAvZOJGM6kqyp0zQMgyrHYAQDwLGI4AFDA3slEDGfSVRW65gEQ5VjsAAB4FjEcAChg72QihjPpqgpd8wCIcix2AAA8ixgOABSwdzIRw5l0VYWueQBEORY7AACeRQwHAArYO5mI4Uy6qkLXPACiHIsdAADPIoYDAAXsnUzEcCZdVaFrHgBRjsUOAIBnEcMBgAL2TiZiOJOuqtA1D4Aox2IHAMCziOEAQAF7JxMxnElXVeiaB0CUY7EDAOBZxHAAoIC9k4kYzqSrKnTNAyDKsdgBAPAsYjgAUMDeyUQMZ9JVFbrmARDlWOwAAHgWMRwAKGDvZCKGM+mqCl3zAIhyLHYAADyLGA4AFLB3MhHDmXRVha55AEQ5FjsAAJ5FDAcACtg7mYjhTLqqQtc8AKIcix0AAM8ihgMABeydTMRwJl1VoWseAFGOxQ4AgGcRwwGAAvZOJmI4k66q0DUPgCjHYgcAwLOI4QBAAXsnEzGcSVdV6JoHQJRjsQMA4FnEcACggL2TiRjOpKsqdM0DIMqx2AEA8CxiOABQwN7JRAxn0lUVuuYBEOVY7AAAeBYxHAAoYO9kIoYz6aoKXfMAiHIsdgAAPIsYDgAUsHcyEcOZdFWFrnkARDkWOwAAnkUMBwAK2DuZiOFMuqpC1zwAohyLHQAAzyKGAwAF7J1MxHAmXVWhax4AUY7FDgCAZxHDAYAC9k4mYjiTrqrQNQ+AKMdiBwDAs4jhAECBN/dOhYWFtWrVuiYUY4wxUryzB+iqCl3zAIhyLHYAADyLGA4AFHh279SnT5+cnByx1cLoNcaIrd6gqyp0zQMgyrHYAQDwLGI4AFDg2b1TyJQtZE4Xw3RVha55AEQ5FjsAAJ5FDAcACjy7dyosLIyLi6voPafBe2OerqrQNQ+AKMdiBwDAs4jhAECBl/dOQa53C3mtXGzTVRW65gEQ5VjsAAB4FjEcACjw8t4pSNYWJKHzAl1VoWseAFGOxQ4AgGcRwwGAAi/vnSp652lF7d6hqyp0zQMgyrHYAQDwLGI4AFDg8b2T9Kq3IFfJeYSuqtA1D4Aox2IHAMCziOEAQIHH907SxE2azXmKrqrQNQ+AKMdiBwDAs4jhAECBx/dOge8/DWzxIF1VoWseAFGOxQ4AgGcRwwGAAvZOwrVv0uvjvEZXVeiaB0CUY7EDAOBZxHAAoIC9k5C78Y7UH/VVha55AEQ5FjsAAJ5FDAcACtg7Wd+FyjtS/XRVha55AEQ5FjsAAJ5FDAcACtg7/Wi5Ao53pPrpqgpd8wCIcix2AAA8ixgOABSwd/rRkr7xjlQ/XVWhax4AUY7FDgCAZxHDAYAC9k4/Xnwv6sGDB3lHqp+uqtA1D4Aox2IHAMCziOEAQAF7J78+ffr06NGDd6T66aoKXfMAiHIsdgAAPIsYDgAUsHfyy8nJueaaa3hHqp+uqtA1D4Aox2IHAMCziOEAQIGLe6eCgoIJEyZkZmZmRIERI0bUqlXL+FfscInxtKxZs0Z8yiqLrqrQNQ9MUbVqqgp3V5NHsNgBAPAsYjgAUODi3mnChAl5eXkFUWP69Olik6vmz58/d+5c8VmrFLqqQtc8MEXbqqkqXFxNHsFiBwDAs4jhAECBi3unMWPGiHtlWBQWFmZkZIjPWqXQVRW65oGJVeOMi6vJI1jsAAB4FjEcAChwce9EoBDShAkTxGetUuiqCl3zwMSqccyt1eQRLHYAADyLGA4AFLi4dyJQCMmt4EBXVeiaByZWjWNurSaPYLEDAOBZxHAAoMDFvROBQkhuBQe6qkLXPDCxahxzazV5BIsdAADPIoYDAAUu7p0IFEJyKzjQVRW65oGJVeOYW6vJI1jsAAB4FjEcAChwce9EoBCSW8GBrqrQNQ9MrBrH3FpNHsFiBwDAs4jhAECBi3snAoWQ3AoOdFWFrnlgYtU45tZq8ggWOwAAnkUMBwAKXNw7ESiE5FZwoKsqdM0DE6vGMbdWk0ew2AEA8CxiOABQ4OLeiUAhJLeCA11VoWsemFg1jrm1mjyCxQ4AgGcRwwGAAhf3TgQKIbkVHOiqCl3zwMSqccyt1eQRLHYAADyLGA4AFLi4dyJQCMmt4EBXVeiaByZWjWNurSaPYLEDAOBZxHAAoMDFvROBQkhuBQe6qkLXPDCxahxzazV5BIsdAADPIoYDAAUu7p0iFCjUrFlTbPqpDh061KhRQ2yNSm4FB7qqQtc8MEVo1QQKuY6qHLdWk0ew2AEA8CxiOABQ4OLeKWSgYA0C7IcCdkbqGhNpbgUHuqpC1zwwhVw1zgRWe+vWrYUWwYEDB2peZNwWuwMEHqKSubWaPILFDgCAZxHDAYACF/dOIQMFYji3ggNdVaFrHphCrhoHrr/+egfXh6ouTztjIsqt1eQRLHYAADyLGA4AFLi4dwoZKFSvXr1+/frGDeNf47a/UXoNjtm4ZMkSc7e/bds2c6Rx29/oZ44JQjpGenTrSPO29Og1Lz5C692DcCs40FUVuuaBKeSqkdZYTVmJGk6cOGH86P/XbCyw98Zt613MS+ekC8RPOERFC8Q6xmyRTmsdHHjHQG6tJo9gsQMA4FnEcACgwMW9U8hAoUaNGnfffbdx4/bbbzdDAeneOyEhwX8jLS0t+Ejpj1LSMS1atDBvmweVHkjaaDw24xEGDqiIW8GBrqrQNQ9MdlaNWWPBS3TRokWpqamBAypqEUgHSBdI3759jcGXX3658a9x298ofUgV3ZBOK50hCLdWk0ew2AEA8CxiOABQ4OLeKWSg4N9aGw8vLi4ucH9uvW2/UfqjVMgxwQ8UsjHkZ28VuBcc6KoKXfPAZHPVCLftNwZpEagOCPJj4EMKvGGSdgUOC+TWavIIFjsAAJ5FDAcAClzcO9kMFOLi4tq3bx987y1trFGjRk0Lc4B1TBDSMXXq1DEnDH7ZnfTo1pF2uBUc6KoKXfPAZHPVCLcrajRdfvnlHTp0MMdYh1XEPyAzM9M/g79RukCs403BF4hwQzqtOUa4XRG3VpNHsNgBAPAsYjgAUODi3klvoBC8URCkyyQdIz2QVfCjSxuDcCs40FUVuuaBydmqsbLZGNgikB5I2mjnR6FRuBFk2iCNArdWk0ew2AEA8CxiOABQ4OLeyVmgIG2Ufjac2Vjw08+WKrC3aZeOkR7I+vnxwY8unTMIt4IDXVWhax6YQq4a6WfDSUvUKrAyA1sE0rUgbfQTJgy+QIQb0mlD/lICt1aTR7DYAQDwLGI4AFDg4t4pZKBg3bebt6XfmSj9plTpSOmnxUsJb5pbsGBBQQUHsjIbpUeX3iUIt4IDXVWhax6Y7KyawG9KFQaITbLGwBaBdC1IG61d5qKTLhCz0fweVX9XkGn9pI0Ct1aTR7DYAQDwLGI4AFDg4t4pZKBQFdmJA+xzKzjQVRW65oEp5KoJWYFBBkwpZ9zo0KGDNMKLWkF+KZNbq8kjWOwAAHgWMRwAKHBx7xQyUKgqpNf1aOFWcKCrKnTNA1PIVSMNpOyX6DPPPGOM2bhxo9gRfez/Un5urSaPYLEDAOBZxHAAoMDFvVPIQAFuBQe6qkLXPDCxahxzazV5BIsdAADPIoYDAAUu7p0IFEJyKzjQVRW65oGJVeOYW6vJI1jsAAB4FjEcAChwce9EoBCSW8GBrqrQNQ9MrBrH3FpNHsFiBwDAs4jhAECBi3snAoWQ3AoOdFWFrnlgYtU45tZq8ggWOwAAnkUMBwAKXNw7ESiE5FZwoKsqdM0DE6vGMbdWk0ew2AEA8CxiOABQ4OLeiUAhJLeCA11VoWsemFg1jrm1mjyCxQ4AgGcRwwGAAhf3TgQKIY0fP1581iqFrqrQNQ9MrBrH3FpNHsFiBwDAs4jhAECBi3un0aNH5+fni3tlXLR9+/bs7GzxWasUuqpC1zwwsWqccXE1eQSLHQAAzyKGAwAFLu6dVq1aNW/ePHG7jHLff//9U089df78efFZqxS6qkLXPDCxahxwdzV5BIsdAADPIoYDAAXu7p1ycnLGQWbq1KnFxcXi81VZdFWFrnlgxapR5e5q8ggWOwAAnkUMBwAK2DshkK6q0DUPgCjHYgcAwLOI4QBAAXsnBNJVFbrmARDlWOwAAHgWMRwAKGDvhEC6qkLXPACiHIsdAADPIoYDAAXsnRBIV1XomgdAlGOxAwDgWcRwAKCAvRMC6aoKXfMAiHIsdgAAPIsYDgAUsHdCIF1VoWseAFGOxQ4AgGcRwwGAAvZOCKSrKnTNAyDKsdgBAPAsYjgAUMDeCYF0VYWueQBEORY7AACeRQwHAArYOyGQrqrQNQ+AKMdiBwDAs4jhAEABeycE0lUVuuYBEOVY7AAAeBYxHAAoYO+EQLqqQtc8AKIcix0AAM8ihgMABeydEEhXVeiaB0CUY7EDAOBZxHAAoGD9+vXG3mnJkiViBzxs+fLlRlWsWbNG7FBEdQEeoeukAQAAqhxiOABQUFRUdOWVV3bt2lXsgIdNnTrV2FHv2bNH7FBEdQEeoeukAQAAqhxiOABQM3HiRGP71K1bt6VLl66E57333nu///3vk5OTxUJxhOoCYp7ekwYAAKhaiOEAQE1ZWdnEiROrVat2CVCuevXq69atEwvFEaoL8AKNJw0AAFC1EMMBgBNFRUXr168XL3KA96xevfrUqVNifYSH6gJiWCROGgAAoKoghgMAAAAAAAAijhgOAAAAAAAAiDhiOAAAAAAAACDiiOEAAAAAAACAiPv/btwl2RVKO0gAAAAASUVORK5CYII=;" vertex="1" parent="1">
            <mxGeometry x="-660" y="20" width="1666" height="477" as="geometry" />
          </mxCell>
        </UserObject>
      </root>
    </mxGraphModel>
  </diagram>
</mxfile>
